<svg xmlns="http://www.w3.org/2000/svg" xmlns:xlink="http://www.w3.org/1999/xlink" width="250" zoomAndPan="magnify" viewBox="0 0 187.5 60" height="80" preserveAspectRatio="xMidYMid meet" version="1.0"><defs><g/><clipPath id="cc0fed4b52"><path d="M 10 18 L 28 18 L 28 30 L 10 30 Z M 10 18 " clip-rule="nonzero"/></clipPath><clipPath id="4584d94add"><path d="M 15.199219 7.878906 L 50.046875 17.261719 L 40.667969 52.109375 L 5.816406 42.726562 Z M 15.199219 7.878906 " clip-rule="nonzero"/></clipPath><clipPath id="89d50e71d6"><path d="M 15.199219 7.878906 L 50.046875 17.261719 L 40.667969 52.109375 L 5.816406 42.726562 Z M 15.199219 7.878906 " clip-rule="nonzero"/></clipPath><clipPath id="c2de0fe320"><path d="M 21 22 L 26 22 L 26 27 L 21 27 Z M 21 22 " clip-rule="nonzero"/></clipPath><clipPath id="43111d5ce0"><path d="M 15.199219 7.878906 L 50.046875 17.261719 L 40.667969 52.109375 L 5.816406 42.726562 Z M 15.199219 7.878906 " clip-rule="nonzero"/></clipPath><clipPath id="8064869b69"><path d="M 15.199219 7.878906 L 50.046875 17.261719 L 40.667969 52.109375 L 5.816406 42.726562 Z M 15.199219 7.878906 " clip-rule="nonzero"/></clipPath><clipPath id="5b1f78cfe4"><path d="M 25 10 L 37 10 L 37 28 L 25 28 Z M 25 10 " clip-rule="nonzero"/></clipPath><clipPath id="fd12b5cad0"><path d="M 15.199219 7.878906 L 50.046875 17.261719 L 40.667969 52.109375 L 5.816406 42.726562 Z M 15.199219 7.878906 " clip-rule="nonzero"/></clipPath><clipPath id="9963e087a4"><path d="M 15.199219 7.878906 L 50.046875 17.261719 L 40.667969 52.109375 L 5.816406 42.726562 Z M 15.199219 7.878906 " clip-rule="nonzero"/></clipPath><clipPath id="f1aba47878"><path d="M 30 20 L 34 20 L 34 25 L 30 25 Z M 30 20 " clip-rule="nonzero"/></clipPath><clipPath id="0b8e78a996"><path d="M 15.199219 7.878906 L 50.046875 17.261719 L 40.667969 52.109375 L 5.816406 42.726562 Z M 15.199219 7.878906 " clip-rule="nonzero"/></clipPath><clipPath id="38b54339aa"><path d="M 15.199219 7.878906 L 50.046875 17.261719 L 40.667969 52.109375 L 5.816406 42.726562 Z M 15.199219 7.878906 " clip-rule="nonzero"/></clipPath><clipPath id="65f3e814ca"><path d="M 30 19 L 46 19 L 46 33 L 30 33 Z M 30 19 " clip-rule="nonzero"/></clipPath><clipPath id="20d89e8d59"><path d="M 15.199219 7.878906 L 50.046875 17.261719 L 40.667969 52.109375 L 5.816406 42.726562 Z M 15.199219 7.878906 " clip-rule="nonzero"/></clipPath><clipPath id="f24aa337e8"><path d="M 15.199219 7.878906 L 50.046875 17.261719 L 40.667969 52.109375 L 5.816406 42.726562 Z M 15.199219 7.878906 " clip-rule="nonzero"/></clipPath><clipPath id="1d7095eda2"><path d="M 34 28 L 39 28 L 39 33 L 34 33 Z M 34 28 " clip-rule="nonzero"/></clipPath><clipPath id="64fc5582e3"><path d="M 15.199219 7.878906 L 50.046875 17.261719 L 40.667969 52.109375 L 5.816406 42.726562 Z M 15.199219 7.878906 " clip-rule="nonzero"/></clipPath><clipPath id="42977b3c8f"><path d="M 15.199219 7.878906 L 50.046875 17.261719 L 40.667969 52.109375 L 5.816406 42.726562 Z M 15.199219 7.878906 " clip-rule="nonzero"/></clipPath><clipPath id="f961502a11"><path d="M 29 30 L 44 30 L 44 46 L 29 46 Z M 29 30 " clip-rule="nonzero"/></clipPath><clipPath id="35b019764d"><path d="M 15.199219 7.878906 L 50.046875 17.261719 L 40.667969 52.109375 L 5.816406 42.726562 Z M 15.199219 7.878906 " clip-rule="nonzero"/></clipPath><clipPath id="2f15bcd8cc"><path d="M 15.199219 7.878906 L 50.046875 17.261719 L 40.667969 52.109375 L 5.816406 42.726562 Z M 15.199219 7.878906 " clip-rule="nonzero"/></clipPath><clipPath id="bb3e1923aa"><path d="M 29.652344 30.910156 L 45.195312 35.09375 L 41.71875 48.007812 L 26.175781 43.824219 Z M 29.652344 30.910156 " clip-rule="nonzero"/></clipPath><clipPath id="8888907310"><path d="M 28 35 L 33 35 L 33 39 L 28 39 Z M 28 35 " clip-rule="nonzero"/></clipPath><clipPath id="1102922846"><path d="M 15.199219 7.878906 L 50.046875 17.261719 L 40.667969 52.109375 L 5.816406 42.726562 Z M 15.199219 7.878906 " clip-rule="nonzero"/></clipPath><clipPath id="7df2ccd6db"><path d="M 15.199219 7.878906 L 50.046875 17.261719 L 40.667969 52.109375 L 5.816406 42.726562 Z M 15.199219 7.878906 " clip-rule="nonzero"/></clipPath><clipPath id="dce1415103"><path d="M 14 30 L 28 30 L 28 47 L 14 47 Z M 14 30 " clip-rule="nonzero"/></clipPath><clipPath id="741c130404"><path d="M 15.199219 7.878906 L 50.046875 17.261719 L 40.667969 52.109375 L 5.816406 42.726562 Z M 15.199219 7.878906 " clip-rule="nonzero"/></clipPath><clipPath id="496f957375"><path d="M 15.199219 7.878906 L 50.046875 17.261719 L 40.667969 52.109375 L 5.816406 42.726562 Z M 15.199219 7.878906 " clip-rule="nonzero"/></clipPath><clipPath id="004af97eae"><path d="M 17.121094 27.609375 L 27.945312 30.523438 L 23.382812 47.480469 L 12.554688 44.566406 Z M 17.121094 27.609375 " clip-rule="nonzero"/></clipPath><clipPath id="abbd00ca76"><path d="M 20 31 L 25 31 L 25 36 L 20 36 Z M 20 31 " clip-rule="nonzero"/></clipPath><clipPath id="e606e65b42"><path d="M 15.199219 7.878906 L 50.046875 17.261719 L 40.667969 52.109375 L 5.816406 42.726562 Z M 15.199219 7.878906 " clip-rule="nonzero"/></clipPath><clipPath id="6b395a33ba"><path d="M 15.199219 7.878906 L 50.046875 17.261719 L 40.667969 52.109375 L 5.816406 42.726562 Z M 15.199219 7.878906 " clip-rule="nonzero"/></clipPath><clipPath id="a7f148c981"><path d="M 45 9 L 55.796875 9 L 55.796875 47 L 45 47 Z M 45 9 " clip-rule="nonzero"/></clipPath><clipPath id="ac148cf525"><path d="M 11 47 L 49 47 L 49 57.886719 L 11 57.886719 Z M 11 47 " clip-rule="nonzero"/></clipPath><clipPath id="89dc3cf0fb"><path d="M 7 2.089844 L 45 2.089844 L 45 13 L 7 13 Z M 7 2.089844 " clip-rule="nonzero"/></clipPath></defs><g clip-path="url(#cc0fed4b52)"><g clip-path="url(#4584d94add)"><g clip-path="url(#89d50e71d6)"><path fill="#737373" d="M 27.496094 28.6875 C 27.726562 28.691406 27.769531 28.359375 27.542969 28.304688 L 21.125 26.210938 C 21.105469 26.144531 21.085938 26.078125 21.0625 26.015625 L 19.953125 22.847656 L 18.296875 18.136719 C 18.21875 17.914062 17.890625 17.992188 17.917969 18.222656 C 17.917969 18.222656 19.941406 24.515625 17.117188 26.289062 C 15.652344 27.210938 10.25 27.15625 10.25 27.15625 C 10.015625 27.164062 9.988281 27.5 10.21875 27.542969 C 11.574219 27.796875 12.925781 28.058594 14.273438 28.320312 C 15.585938 28.578125 16.960938 29.003906 18.300781 29.019531 C 18.421875 29.019531 18.542969 29.015625 18.664062 29.011719 C 19.347656 28.980469 20.019531 28.84375 20.691406 28.722656 C 21.351562 28.605469 21.921875 28.59375 22.582031 28.609375 C 23.277344 28.625 23.972656 28.632812 24.667969 28.644531 C 25.609375 28.65625 26.554688 28.671875 27.496094 28.6875 " fill-opacity="1" fill-rule="nonzero"/></g></g></g><g clip-path="url(#c2de0fe320)"><g clip-path="url(#43111d5ce0)"><g clip-path="url(#8064869b69)"><path fill="#737373" d="M 22.082031 23.394531 C 21.390625 24.199219 21.417969 25.355469 22.144531 25.976562 C 22.871094 26.601562 24.019531 26.453125 24.707031 25.652344 C 25.398438 24.847656 25.371094 23.691406 24.644531 23.066406 C 23.917969 22.445312 22.769531 22.589844 22.082031 23.394531 " fill-opacity="1" fill-rule="nonzero"/></g></g></g><g clip-path="url(#5b1f78cfe4)"><g clip-path="url(#fd12b5cad0)"><g clip-path="url(#9963e087a4)"><path fill="#f14624" d="M 29.320312 27.710938 C 29.386719 27.933594 29.71875 27.871094 29.699219 27.636719 L 29.707031 20.886719 C 29.761719 20.851562 29.820312 20.808594 29.875 20.769531 L 32.542969 18.730469 L 36.515625 15.703125 C 36.699219 15.558594 36.527344 15.273438 36.3125 15.371094 C 36.3125 15.371094 30.957031 19.238281 28.394531 17.101562 C 27.0625 15.992188 25.449219 10.835938 25.449219 10.835938 C 25.371094 10.617188 25.042969 10.695312 25.074219 10.925781 C 25.25 12.292969 25.417969 13.660156 25.582031 15.023438 C 25.746094 16.351562 25.761719 17.792969 26.164062 19.066406 C 26.203125 19.183594 26.242188 19.296875 26.285156 19.410156 C 26.523438 20.054688 26.863281 20.648438 27.1875 21.25 C 27.503906 21.84375 27.6875 22.382812 27.878906 23.015625 C 28.078125 23.679688 28.285156 24.34375 28.492188 25.011719 C 28.765625 25.910156 29.042969 26.8125 29.320312 27.710938 " fill-opacity="1" fill-rule="nonzero"/></g></g></g><g clip-path="url(#f1aba47878)"><g clip-path="url(#0b8e78a996)"><g clip-path="url(#38b54339aa)"><path fill="#f14624" d="M 32.683594 20.925781 C 31.703125 20.515625 30.613281 20.902344 30.246094 21.785156 C 29.875 22.667969 30.371094 23.714844 31.347656 24.121094 C 32.324219 24.53125 33.417969 24.144531 33.785156 23.261719 C 34.152344 22.378906 33.660156 21.332031 32.683594 20.925781 " fill-opacity="1" fill-rule="nonzero"/></g></g></g><g clip-path="url(#65f3e814ca)"><g clip-path="url(#20d89e8d59)"><g clip-path="url(#f24aa337e8)"><path fill="#ffde59" d="M 30.8125 29.144531 C 30.621094 29.277344 30.785156 29.574219 31 29.484375 L 37.421875 27.402344 C 37.476562 27.445312 37.53125 27.488281 37.589844 27.527344 L 40.351562 29.4375 L 44.457031 32.277344 C 44.648438 32.410156 44.871094 32.152344 44.710938 31.984375 C 44.710938 31.984375 39.378906 28.082031 40.617188 24.984375 C 41.261719 23.378906 45.667969 20.25 45.667969 20.25 C 45.851562 20.105469 45.675781 19.820312 45.464844 19.917969 C 44.21875 20.507812 42.972656 21.089844 41.722656 21.671875 C 40.511719 22.234375 39.148438 22.699219 38.058594 23.472656 C 37.960938 23.542969 37.863281 23.617188 37.769531 23.691406 C 37.230469 24.117188 36.769531 24.625 36.296875 25.117188 C 35.832031 25.601562 35.378906 25.945312 34.835938 26.320312 C 34.261719 26.71875 33.695312 27.121094 33.125 27.519531 C 32.355469 28.0625 31.585938 28.601562 30.8125 29.144531 " fill-opacity="1" fill-rule="nonzero"/></g></g></g><g clip-path="url(#1d7095eda2)"><g clip-path="url(#64fc5582e3)"><g clip-path="url(#42977b3c8f)"><path fill="#ffde59" d="M 38.304688 30.246094 C 38.390625 29.191406 37.6875 28.269531 36.734375 28.191406 C 35.78125 28.117188 34.9375 28.910156 34.851562 29.964844 C 34.765625 31.019531 35.46875 31.941406 36.425781 32.015625 C 37.378906 32.09375 38.21875 31.300781 38.304688 30.246094 " fill-opacity="1" fill-rule="nonzero"/></g></g></g><g clip-path="url(#f961502a11)"><g clip-path="url(#35b019764d)"><g clip-path="url(#2f15bcd8cc)"><g clip-path="url(#bb3e1923aa)"><path fill="#cb6ce6" d="M 29.914062 31.007812 C 29.726562 30.867188 29.496094 31.113281 29.644531 31.292969 L 33.609375 36.757812 C 33.585938 36.820312 33.5625 36.886719 33.542969 36.953125 L 32.582031 40.167969 L 31.148438 44.953125 C 31.082031 45.175781 31.394531 45.308594 31.507812 45.105469 C 31.507812 45.105469 33.566406 38.824219 36.898438 39.046875 C 38.625 39.164062 42.960938 42.386719 42.960938 42.386719 C 43.15625 42.515625 43.375 42.261719 43.214844 42.089844 C 42.269531 41.089844 41.328125 40.082031 40.390625 39.074219 C 39.480469 38.097656 38.617188 36.941406 37.542969 36.148438 C 37.445312 36.074219 37.347656 36.003906 37.246094 35.9375 C 36.675781 35.558594 36.050781 35.277344 35.433594 34.980469 C 34.832031 34.6875 34.363281 34.359375 33.839844 33.960938 C 33.285156 33.539062 32.726562 33.125 32.171875 32.707031 C 31.417969 32.140625 30.664062 31.574219 29.914062 31.007812 " fill-opacity="1" fill-rule="nonzero"/></g></g></g></g><g clip-path="url(#8888907310)"><g clip-path="url(#1102922846)"><g clip-path="url(#7df2ccd6db)"><path fill="#cb6ce6" d="M 31.179688 38.472656 C 32.210938 38.230469 32.867188 37.277344 32.648438 36.347656 C 32.425781 35.414062 31.410156 34.859375 30.378906 35.105469 C 29.347656 35.347656 28.691406 36.300781 28.914062 37.230469 C 29.132812 38.164062 30.148438 38.71875 31.179688 38.472656 " fill-opacity="1" fill-rule="nonzero"/></g></g></g><g clip-path="url(#dce1415103)"><g clip-path="url(#741c130404)"><g clip-path="url(#496f957375)"><g clip-path="url(#004af97eae)"><path fill="#51ade5" d="M 27.859375 30.726562 C 27.9375 30.507812 27.632812 30.363281 27.507812 30.5625 L 23.535156 36.019531 C 23.46875 36.015625 23.398438 36.015625 23.328125 36.015625 L 19.972656 36.09375 L 14.980469 36.214844 C 14.746094 36.21875 14.71875 36.554688 14.949219 36.601562 C 14.949219 36.601562 21.554688 36.621094 22.375 39.855469 C 22.796875 41.53125 21.070312 46.652344 21.070312 46.652344 C 21.007812 46.878906 21.320312 47.007812 21.429688 46.800781 C 22.089844 45.59375 22.757812 44.386719 23.425781 43.183594 C 24.074219 42.019531 24.90625 40.839844 25.332031 39.574219 C 25.371094 39.457031 25.40625 39.34375 25.4375 39.226562 C 25.621094 38.566406 25.695312 37.882812 25.789062 37.207031 C 25.882812 36.542969 26.046875 35.996094 26.265625 35.375 C 26.496094 34.71875 26.71875 34.058594 26.945312 33.398438 C 27.25 32.507812 27.554688 31.617188 27.859375 30.726562 " fill-opacity="1" fill-rule="nonzero"/></g></g></g></g><g clip-path="url(#abbd00ca76)"><g clip-path="url(#e606e65b42)"><g clip-path="url(#6b395a33ba)"><path fill="#51ade5" d="M 21.152344 34.238281 C 21.703125 35.144531 22.8125 35.476562 23.628906 34.976562 C 24.445312 34.480469 24.660156 33.34375 24.109375 32.4375 C 23.558594 31.53125 22.449219 31.203125 21.632812 31.699219 C 20.816406 32.199219 20.601562 33.335938 21.152344 34.238281 " fill-opacity="1" fill-rule="nonzero"/></g></g></g><g clip-path="url(#a7f148c981)"><path fill="#ffde59" d="M 49.039062 21.679688 C 48.871094 24.054688 46.421875 27.382812 47.992188 31.226562 C 49.9375 35.988281 47.289062 39.472656 48.410156 39.929688 C 49.53125 40.386719 50.628906 36.726562 51.144531 34.585938 C 51.609375 32.648438 52.207031 41.464844 48.738281 45.050781 C 48.355469 45.445312 48.597656 46.109375 49.144531 46.167969 C 49.351562 46.191406 49.558594 46.113281 49.703125 45.960938 C 50.855469 44.726562 55.816406 38.769531 55.214844 28.367188 C 54.539062 16.613281 45.421875 9.855469 45.421875 9.855469 C 45.421875 9.855469 49.472656 15.585938 49.039062 21.679688 " fill-opacity="1" fill-rule="nonzero"/></g><g clip-path="url(#ac148cf525)"><path fill="#51ade5" d="M 36.226562 51.128906 C 33.851562 50.960938 30.523438 48.511719 26.679688 50.082031 C 21.917969 52.027344 18.433594 49.382812 17.976562 50.5 C 17.519531 51.621094 21.179688 52.71875 23.320312 53.234375 C 25.257812 53.699219 16.441406 54.296875 12.859375 50.828125 C 12.460938 50.445312 11.800781 50.691406 11.738281 51.238281 C 11.71875 51.445312 11.792969 51.652344 11.945312 51.792969 C 13.179688 52.945312 19.136719 57.90625 29.539062 57.308594 C 41.292969 56.628906 48.050781 47.511719 48.050781 47.511719 C 48.050781 47.511719 42.320312 51.566406 36.226562 51.128906 " fill-opacity="1" fill-rule="nonzero"/></g><path fill="#737373" d="M 6.777344 38.316406 C 6.945312 35.945312 9.394531 32.613281 7.824219 28.769531 C 5.878906 24.011719 8.527344 20.523438 7.40625 20.066406 C 6.285156 19.609375 5.1875 23.273438 4.671875 25.414062 C 4.207031 27.347656 3.609375 18.535156 7.078125 14.949219 C 7.460938 14.554688 7.21875 13.890625 6.671875 13.828125 C 6.460938 13.808594 6.257812 13.882812 6.113281 14.035156 C 4.960938 15.273438 0 21.226562 0.601562 31.628906 C 1.277344 43.386719 10.394531 50.144531 10.394531 50.144531 C 10.394531 50.144531 6.34375 44.410156 6.777344 38.316406 " fill-opacity="1" fill-rule="nonzero"/><g clip-path="url(#89dc3cf0fb)"><path fill="#f14624" d="M 19.589844 8.867188 C 21.964844 9.035156 25.292969 11.484375 29.136719 9.914062 C 33.894531 7.96875 37.382812 10.617188 37.839844 9.496094 C 38.296875 8.375 34.636719 7.277344 32.496094 6.761719 C 30.558594 6.296875 39.371094 5.699219 42.957031 9.167969 C 43.355469 9.550781 44.015625 9.308594 44.078125 8.761719 C 44.097656 8.554688 44.023438 8.347656 43.871094 8.203125 C 42.636719 7.054688 36.679688 2.09375 26.277344 2.691406 C 14.523438 3.367188 7.765625 12.484375 7.765625 12.484375 C 7.765625 12.484375 13.496094 8.433594 19.589844 8.867188 " fill-opacity="1" fill-rule="nonzero"/></g><g fill="#51ade5" fill-opacity="1"><g transform="translate(56.527349, 31.969757)"><g/></g></g><g fill="#51ade5" fill-opacity="1"><g transform="translate(58.733489, 31.969757)"><g/></g></g><g fill="#51ade5" fill-opacity="1"><g transform="translate(60.939629, 31.969757)"><g/></g></g><g fill="#51ade5" fill-opacity="1"><g transform="translate(63.154756, 31.969757)"><g><path d="M 2.921875 -5.515625 C 3.617188 -5.515625 4.15625 -5.347656 4.53125 -5.015625 C 4.914062 -4.691406 5.109375 -4.226562 5.109375 -3.625 C 5.109375 -3 4.914062 -2.515625 4.53125 -2.171875 C 4.15625 -1.828125 3.617188 -1.65625 2.921875 -1.65625 L 1.65625 -1.65625 L 1.65625 0 L 0.71875 0 L 0.71875 -5.515625 Z M 2.875 -2.5 C 3.3125 -2.5 3.644531 -2.59375 3.875 -2.78125 C 4.101562 -2.96875 4.21875 -3.242188 4.21875 -3.609375 C 4.21875 -3.960938 4.101562 -4.226562 3.875 -4.40625 C 3.644531 -4.582031 3.3125 -4.671875 2.875 -4.671875 L 1.65625 -4.671875 L 1.65625 -2.5 Z M 2.875 -2.5 "/></g></g></g><g fill="#51ade5" fill-opacity="1"><g transform="translate(68.53616, 31.969757)"><g><path d="M 1.546875 -2.265625 C 1.546875 -1.796875 1.675781 -1.425781 1.9375 -1.15625 C 2.195312 -0.894531 2.550781 -0.765625 3 -0.765625 C 3.4375 -0.765625 3.785156 -0.894531 4.046875 -1.15625 C 4.304688 -1.425781 4.4375 -1.796875 4.4375 -2.265625 L 4.4375 -5.515625 L 5.359375 -5.515625 L 5.359375 -2.265625 C 5.359375 -1.785156 5.265625 -1.367188 5.078125 -1.015625 C 4.890625 -0.671875 4.613281 -0.398438 4.25 -0.203125 C 3.894531 -0.015625 3.476562 0.078125 3 0.078125 C 2.507812 0.078125 2.082031 -0.015625 1.71875 -0.203125 C 1.363281 -0.398438 1.085938 -0.671875 0.890625 -1.015625 C 0.703125 -1.367188 0.609375 -1.785156 0.609375 -2.265625 L 0.609375 -5.515625 L 1.546875 -5.515625 Z M 1.546875 -2.265625 "/></g></g></g><g fill="#51ade5" fill-opacity="1"><g transform="translate(74.595169, 31.969757)"><g><path d="M 5.28125 0 L 4.21875 0 L 3.21875 -1.671875 C 3.164062 -1.660156 3.082031 -1.65625 2.96875 -1.65625 L 1.65625 -1.65625 L 1.65625 0 L 0.71875 0 L 0.71875 -5.515625 L 2.96875 -5.515625 C 3.664062 -5.515625 4.207031 -5.347656 4.59375 -5.015625 C 4.988281 -4.691406 5.1875 -4.226562 5.1875 -3.625 C 5.1875 -3.1875 5.085938 -2.816406 4.890625 -2.515625 C 4.691406 -2.210938 4.410156 -1.988281 4.046875 -1.84375 Z M 1.65625 -2.5 L 2.96875 -2.5 C 3.394531 -2.5 3.722656 -2.59375 3.953125 -2.78125 C 4.179688 -2.96875 4.296875 -3.242188 4.296875 -3.609375 C 4.296875 -3.960938 4.179688 -4.226562 3.953125 -4.40625 C 3.722656 -4.582031 3.394531 -4.671875 2.96875 -4.671875 L 1.65625 -4.671875 Z M 1.65625 -2.5 "/></g></g></g><g fill="#51ade5" fill-opacity="1"><g transform="translate(80.37053, 31.969757)"><g><path d="M 1.546875 -2.265625 C 1.546875 -1.796875 1.675781 -1.425781 1.9375 -1.15625 C 2.195312 -0.894531 2.550781 -0.765625 3 -0.765625 C 3.4375 -0.765625 3.785156 -0.894531 4.046875 -1.15625 C 4.304688 -1.425781 4.4375 -1.796875 4.4375 -2.265625 L 4.4375 -5.515625 L 5.359375 -5.515625 L 5.359375 -2.265625 C 5.359375 -1.785156 5.265625 -1.367188 5.078125 -1.015625 C 4.890625 -0.671875 4.613281 -0.398438 4.25 -0.203125 C 3.894531 -0.015625 3.476562 0.078125 3 0.078125 C 2.507812 0.078125 2.082031 -0.015625 1.71875 -0.203125 C 1.363281 -0.398438 1.085938 -0.671875 0.890625 -1.015625 C 0.703125 -1.367188 0.609375 -1.785156 0.609375 -2.265625 L 0.609375 -5.515625 L 1.546875 -5.515625 Z M 1.546875 -2.265625 "/></g></g></g><g fill="#51ade5" fill-opacity="1"><g transform="translate(86.429538, 31.969757)"><g><path d="M 4.078125 -4.203125 C 3.796875 -4.367188 3.507812 -4.492188 3.21875 -4.578125 C 2.9375 -4.660156 2.6875 -4.703125 2.46875 -4.703125 C 2.195312 -4.703125 1.976562 -4.648438 1.8125 -4.546875 C 1.644531 -4.453125 1.5625 -4.3125 1.5625 -4.125 C 1.5625 -3.945312 1.613281 -3.800781 1.71875 -3.6875 C 1.820312 -3.582031 1.953125 -3.5 2.109375 -3.4375 C 2.273438 -3.375 2.5 -3.300781 2.78125 -3.21875 C 3.15625 -3.101562 3.457031 -2.988281 3.6875 -2.875 C 3.925781 -2.769531 4.125 -2.609375 4.28125 -2.390625 C 4.445312 -2.179688 4.53125 -1.90625 4.53125 -1.5625 C 4.53125 -1.238281 4.441406 -0.953125 4.265625 -0.703125 C 4.097656 -0.460938 3.851562 -0.273438 3.53125 -0.140625 C 3.21875 -0.00390625 2.859375 0.0625 2.453125 0.0625 C 2.023438 0.0625 1.613281 -0.015625 1.21875 -0.171875 C 0.832031 -0.335938 0.492188 -0.554688 0.203125 -0.828125 L 0.609375 -1.625 C 0.890625 -1.375 1.195312 -1.175781 1.53125 -1.03125 C 1.863281 -0.882812 2.175781 -0.8125 2.46875 -0.8125 C 2.789062 -0.8125 3.039062 -0.875 3.21875 -1 C 3.40625 -1.125 3.5 -1.289062 3.5 -1.5 C 3.5 -1.675781 3.445312 -1.816406 3.34375 -1.921875 C 3.238281 -2.035156 3.101562 -2.125 2.9375 -2.1875 C 2.769531 -2.257812 2.550781 -2.335938 2.28125 -2.421875 C 1.894531 -2.523438 1.585938 -2.628906 1.359375 -2.734375 C 1.140625 -2.835938 0.945312 -2.992188 0.78125 -3.203125 C 0.613281 -3.421875 0.53125 -3.703125 0.53125 -4.046875 C 0.53125 -4.347656 0.613281 -4.613281 0.78125 -4.84375 C 0.945312 -5.082031 1.179688 -5.265625 1.484375 -5.390625 C 1.785156 -5.523438 2.132812 -5.59375 2.53125 -5.59375 C 2.882812 -5.59375 3.226562 -5.539062 3.5625 -5.4375 C 3.894531 -5.332031 4.195312 -5.191406 4.46875 -5.015625 Z M 4.078125 -4.203125 "/></g></g></g><g fill="#51ade5" fill-opacity="1"><g transform="translate(91.409112, 31.969757)"><g><path d="M 0.71875 0 L 0.71875 -5.515625 L 1.65625 -5.515625 L 1.65625 -3.125 L 4.578125 -3.125 L 4.578125 -5.515625 L 5.5 -5.515625 L 5.5 0 L 4.578125 0 L 4.578125 -2.28125 L 1.65625 -2.28125 L 1.65625 0 Z M 0.71875 0 "/></g></g></g><g fill="#51ade5" fill-opacity="1"><g transform="translate(97.720251, 31.969757)"><g><path d="M 3.1875 -5.578125 C 3.726562 -5.578125 4.222656 -5.453125 4.671875 -5.203125 C 5.117188 -4.953125 5.46875 -4.613281 5.71875 -4.1875 C 5.976562 -3.757812 6.109375 -3.285156 6.109375 -2.765625 C 6.109375 -2.242188 5.976562 -1.765625 5.71875 -1.328125 C 5.46875 -0.898438 5.117188 -0.554688 4.671875 -0.296875 C 4.222656 -0.046875 3.726562 0.078125 3.1875 0.078125 C 2.644531 0.078125 2.148438 -0.046875 1.703125 -0.296875 C 1.265625 -0.554688 0.914062 -0.898438 0.65625 -1.328125 C 0.394531 -1.765625 0.265625 -2.242188 0.265625 -2.765625 C 0.265625 -3.285156 0.394531 -3.757812 0.65625 -4.1875 C 0.914062 -4.613281 1.265625 -4.953125 1.703125 -5.203125 C 2.148438 -5.453125 2.644531 -5.578125 3.1875 -5.578125 Z M 3.203125 -4.734375 C 2.835938 -4.734375 2.503906 -4.644531 2.203125 -4.46875 C 1.898438 -4.289062 1.660156 -4.050781 1.484375 -3.75 C 1.304688 -3.457031 1.21875 -3.128906 1.21875 -2.765625 C 1.21875 -2.398438 1.304688 -2.066406 1.484375 -1.765625 C 1.660156 -1.460938 1.898438 -1.21875 2.203125 -1.03125 C 2.503906 -0.851562 2.835938 -0.765625 3.203125 -0.765625 C 3.554688 -0.765625 3.878906 -0.851562 4.171875 -1.03125 C 4.472656 -1.21875 4.710938 -1.460938 4.890625 -1.765625 C 5.066406 -2.066406 5.15625 -2.398438 5.15625 -2.765625 C 5.15625 -3.128906 5.066406 -3.457031 4.890625 -3.75 C 4.710938 -4.050781 4.472656 -4.289062 4.171875 -4.46875 C 3.878906 -4.644531 3.554688 -4.734375 3.203125 -4.734375 Z M 3.203125 -4.734375 "/></g></g></g><g fill="#51ade5" fill-opacity="1"><g transform="translate(104.181089, 31.969757)"><g><path d="M 0.078125 -4.671875 L 0.078125 -5.515625 L 4.484375 -5.515625 L 4.484375 -4.671875 L 2.734375 -4.671875 L 2.734375 0 L 1.8125 0 L 1.8125 -4.671875 Z M 0.078125 -4.671875 "/></g></g></g><g fill="#51ade5" fill-opacity="1"><g transform="translate(108.821863, 31.969757)"><g><path d="M 0.078125 -4.671875 L 0.078125 -5.515625 L 4.484375 -5.515625 L 4.484375 -4.671875 L 2.734375 -4.671875 L 2.734375 0 L 1.8125 0 L 1.8125 -4.671875 Z M 0.078125 -4.671875 "/></g></g></g><g fill="#51ade5" fill-opacity="1"><g transform="translate(113.462638, 31.969757)"><g><path d="M 5.796875 0 L 4.8125 0 L 4.28125 -1.25 L 1.5 -1.25 L 0.96875 0 L 0.015625 0 L 2.4375 -5.515625 L 3.390625 -5.515625 Z M 2.890625 -4.515625 L 1.84375 -2.078125 L 3.921875 -2.078125 Z M 2.890625 -4.515625 "/></g></g></g><g fill="#51ade5" fill-opacity="1"><g transform="translate(119.35619, 31.969757)"><g><path d="M 0.71875 0 L 0.71875 -5.515625 L 1.796875 -5.515625 L 3.703125 -1.828125 L 5.59375 -5.515625 L 6.671875 -5.515625 L 6.671875 0 L 5.8125 0 L 5.8125 -4.140625 L 4 -0.578125 L 3.40625 -0.578125 L 1.578125 -4.140625 L 1.578125 0 Z M 0.71875 0 "/></g></g></g><g fill="#51ade5" fill-opacity="1"><g transform="translate(126.843516, 31.969757)"><g/></g></g><g fill="#51ade5" fill-opacity="1"><g transform="translate(129.049656, 31.969757)"><g/></g></g><g fill="#51ade5" fill-opacity="1"><g transform="translate(131.265207, 31.969757)"><g><path d="M 4.078125 -4.203125 C 3.796875 -4.367188 3.507812 -4.492188 3.21875 -4.578125 C 2.9375 -4.660156 2.6875 -4.703125 2.46875 -4.703125 C 2.195312 -4.703125 1.976562 -4.648438 1.8125 -4.546875 C 1.644531 -4.453125 1.5625 -4.3125 1.5625 -4.125 C 1.5625 -3.945312 1.613281 -3.800781 1.71875 -3.6875 C 1.820312 -3.582031 1.953125 -3.5 2.109375 -3.4375 C 2.273438 -3.375 2.5 -3.300781 2.78125 -3.21875 C 3.15625 -3.101562 3.457031 -2.988281 3.6875 -2.875 C 3.925781 -2.769531 4.125 -2.609375 4.28125 -2.390625 C 4.445312 -2.179688 4.53125 -1.90625 4.53125 -1.5625 C 4.53125 -1.238281 4.441406 -0.953125 4.265625 -0.703125 C 4.097656 -0.460938 3.851562 -0.273438 3.53125 -0.140625 C 3.21875 -0.00390625 2.859375 0.0625 2.453125 0.0625 C 2.023438 0.0625 1.613281 -0.015625 1.21875 -0.171875 C 0.832031 -0.335938 0.492188 -0.554688 0.203125 -0.828125 L 0.609375 -1.625 C 0.890625 -1.375 1.195312 -1.175781 1.53125 -1.03125 C 1.863281 -0.882812 2.175781 -0.8125 2.46875 -0.8125 C 2.789062 -0.8125 3.039062 -0.875 3.21875 -1 C 3.40625 -1.125 3.5 -1.289062 3.5 -1.5 C 3.5 -1.675781 3.445312 -1.816406 3.34375 -1.921875 C 3.238281 -2.035156 3.101562 -2.125 2.9375 -2.1875 C 2.769531 -2.257812 2.550781 -2.335938 2.28125 -2.421875 C 1.894531 -2.523438 1.585938 -2.628906 1.359375 -2.734375 C 1.140625 -2.835938 0.945312 -2.992188 0.78125 -3.203125 C 0.613281 -3.421875 0.53125 -3.703125 0.53125 -4.046875 C 0.53125 -4.347656 0.613281 -4.613281 0.78125 -4.84375 C 0.945312 -5.082031 1.179688 -5.265625 1.484375 -5.390625 C 1.785156 -5.523438 2.132812 -5.59375 2.53125 -5.59375 C 2.882812 -5.59375 3.226562 -5.539062 3.5625 -5.4375 C 3.894531 -5.332031 4.195312 -5.191406 4.46875 -5.015625 Z M 4.078125 -4.203125 "/></g></g></g><g fill="#51ade5" fill-opacity="1"><g transform="translate(136.244782, 31.969757)"><g><path d="M 0.71875 0 L 0.71875 -5.515625 L 4.65625 -5.515625 L 4.65625 -4.671875 L 1.65625 -4.671875 L 1.65625 -3.1875 L 4.34375 -3.1875 L 4.34375 -2.359375 L 1.65625 -2.359375 L 1.65625 -0.828125 L 4.75 -0.828125 L 4.75 0 Z M 0.71875 0 "/></g></g></g><g fill="#51ade5" fill-opacity="1"><g transform="translate(141.492246, 31.969757)"><g><path d="M 2.21875 0 L 0.03125 -5.515625 L 1.03125 -5.515625 L 2.71875 -1.03125 L 4.4375 -5.515625 L 5.40625 -5.515625 L 3.1875 0 Z M 2.21875 0 "/></g></g></g><g fill="#51ade5" fill-opacity="1"><g transform="translate(147.007601, 31.969757)"><g><path d="M 5.796875 0 L 4.8125 0 L 4.28125 -1.25 L 1.5 -1.25 L 0.96875 0 L 0.015625 0 L 2.4375 -5.515625 L 3.390625 -5.515625 Z M 2.890625 -4.515625 L 1.84375 -2.078125 L 3.921875 -2.078125 Z M 2.890625 -4.515625 "/></g></g></g><g fill="#51ade5" fill-opacity="1"><g transform="translate(152.901151, 31.969757)"><g><path d="M 4.078125 -4.203125 C 3.796875 -4.367188 3.507812 -4.492188 3.21875 -4.578125 C 2.9375 -4.660156 2.6875 -4.703125 2.46875 -4.703125 C 2.195312 -4.703125 1.976562 -4.648438 1.8125 -4.546875 C 1.644531 -4.453125 1.5625 -4.3125 1.5625 -4.125 C 1.5625 -3.945312 1.613281 -3.800781 1.71875 -3.6875 C 1.820312 -3.582031 1.953125 -3.5 2.109375 -3.4375 C 2.273438 -3.375 2.5 -3.300781 2.78125 -3.21875 C 3.15625 -3.101562 3.457031 -2.988281 3.6875 -2.875 C 3.925781 -2.769531 4.125 -2.609375 4.28125 -2.390625 C 4.445312 -2.179688 4.53125 -1.90625 4.53125 -1.5625 C 4.53125 -1.238281 4.441406 -0.953125 4.265625 -0.703125 C 4.097656 -0.460938 3.851562 -0.273438 3.53125 -0.140625 C 3.21875 -0.00390625 2.859375 0.0625 2.453125 0.0625 C 2.023438 0.0625 1.613281 -0.015625 1.21875 -0.171875 C 0.832031 -0.335938 0.492188 -0.554688 0.203125 -0.828125 L 0.609375 -1.625 C 0.890625 -1.375 1.195312 -1.175781 1.53125 -1.03125 C 1.863281 -0.882812 2.175781 -0.8125 2.46875 -0.8125 C 2.789062 -0.8125 3.039062 -0.875 3.21875 -1 C 3.40625 -1.125 3.5 -1.289062 3.5 -1.5 C 3.5 -1.675781 3.445312 -1.816406 3.34375 -1.921875 C 3.238281 -2.035156 3.101562 -2.125 2.9375 -2.1875 C 2.769531 -2.257812 2.550781 -2.335938 2.28125 -2.421875 C 1.894531 -2.523438 1.585938 -2.628906 1.359375 -2.734375 C 1.140625 -2.835938 0.945312 -2.992188 0.78125 -3.203125 C 0.613281 -3.421875 0.53125 -3.703125 0.53125 -4.046875 C 0.53125 -4.347656 0.613281 -4.613281 0.78125 -4.84375 C 0.945312 -5.082031 1.179688 -5.265625 1.484375 -5.390625 C 1.785156 -5.523438 2.132812 -5.59375 2.53125 -5.59375 C 2.882812 -5.59375 3.226562 -5.539062 3.5625 -5.4375 C 3.894531 -5.332031 4.195312 -5.191406 4.46875 -5.015625 Z M 4.078125 -4.203125 "/></g></g></g><g fill="#51ade5" fill-opacity="1"><g transform="translate(157.880725, 31.969757)"><g><path d="M 0.71875 0 L 0.71875 -5.515625 L 1.65625 -5.515625 L 1.65625 -3.125 L 4.578125 -3.125 L 4.578125 -5.515625 L 5.5 -5.515625 L 5.5 0 L 4.578125 0 L 4.578125 -2.28125 L 1.65625 -2.28125 L 1.65625 0 Z M 0.71875 0 "/></g></g></g><g fill="#51ade5" fill-opacity="1"><g transform="translate(164.191864, 31.969757)"><g><path d="M 5.28125 0 L 4.21875 0 L 3.21875 -1.671875 C 3.164062 -1.660156 3.082031 -1.65625 2.96875 -1.65625 L 1.65625 -1.65625 L 1.65625 0 L 0.71875 0 L 0.71875 -5.515625 L 2.96875 -5.515625 C 3.664062 -5.515625 4.207031 -5.347656 4.59375 -5.015625 C 4.988281 -4.691406 5.1875 -4.226562 5.1875 -3.625 C 5.1875 -3.1875 5.085938 -2.816406 4.890625 -2.515625 C 4.691406 -2.210938 4.410156 -1.988281 4.046875 -1.84375 Z M 1.65625 -2.5 L 2.96875 -2.5 C 3.394531 -2.5 3.722656 -2.59375 3.953125 -2.78125 C 4.179688 -2.96875 4.296875 -3.242188 4.296875 -3.609375 C 4.296875 -3.960938 4.179688 -4.226562 3.953125 -4.40625 C 3.722656 -4.582031 3.394531 -4.671875 2.96875 -4.671875 L 1.65625 -4.671875 Z M 1.65625 -2.5 "/></g></g></g><g fill="#51ade5" fill-opacity="1"><g transform="translate(169.967223, 31.969757)"><g><path d="M 5.796875 0 L 4.8125 0 L 4.28125 -1.25 L 1.5 -1.25 L 0.96875 0 L 0.015625 0 L 2.4375 -5.515625 L 3.390625 -5.515625 Z M 2.890625 -4.515625 L 1.84375 -2.078125 L 3.921875 -2.078125 Z M 2.890625 -4.515625 "/></g></g></g><g fill="#51ade5" fill-opacity="1"><g transform="translate(175.860775, 31.969757)"><g><path d="M 0.71875 0 L 0.71875 -5.515625 L 1.796875 -5.515625 L 3.703125 -1.828125 L 5.59375 -5.515625 L 6.671875 -5.515625 L 6.671875 0 L 5.8125 0 L 5.8125 -4.140625 L 4 -0.578125 L 3.40625 -0.578125 L 1.578125 -4.140625 L 1.578125 0 Z M 0.71875 0 "/></g></g></g><g fill="#98198e" fill-opacity="1"><g transform="translate(84.869921, 42.634089)"><g><path d="M 0.125 0 L 0.125 -0.515625 L 0.984375 -0.515625 L 0.984375 -4.859375 L 0.125 -4.859375 L 0.125 -5.375 L 4.90625 -5.375 L 4.90625 -3.40625 L 4.25 -3.40625 L 4.25 -4.859375 L 1.828125 -4.859375 L 1.828125 -3.015625 L 3.109375 -3.015625 L 3.109375 -3.765625 L 3.609375 -3.765625 L 3.609375 -1.6875 L 3.109375 -1.6875 L 3.109375 -2.59375 L 1.828125 -2.59375 L 1.828125 -0.515625 L 2.75 -0.515625 L 2.75 0 Z M 0.125 0 "/></g></g></g><g fill="#98198e" fill-opacity="1"><g transform="translate(91.706826, 42.634089)"><g><path d="M 2.84375 0.09375 C 2.519531 0.09375 2.21875 0.0390625 1.9375 -0.0625 C 1.65625 -0.164062 1.410156 -0.304688 1.203125 -0.484375 C 1.015625 -0.660156 0.847656 -0.867188 0.703125 -1.109375 C 0.566406 -1.347656 0.46875 -1.601562 0.40625 -1.875 C 0.332031 -2.132812 0.296875 -2.40625 0.296875 -2.6875 C 0.296875 -3.269531 0.429688 -3.796875 0.703125 -4.265625 C 0.847656 -4.515625 1.019531 -4.726562 1.21875 -4.90625 C 1.414062 -5.082031 1.648438 -5.222656 1.921875 -5.328125 C 2.203125 -5.429688 2.507812 -5.484375 2.84375 -5.484375 C 3.164062 -5.484375 3.46875 -5.429688 3.75 -5.328125 C 4.03125 -5.222656 4.269531 -5.078125 4.46875 -4.890625 C 4.664062 -4.710938 4.832031 -4.503906 4.96875 -4.265625 C 5.101562 -4.023438 5.207031 -3.773438 5.28125 -3.515625 C 5.34375 -3.242188 5.375 -2.96875 5.375 -2.6875 C 5.375 -2.113281 5.238281 -1.59375 4.96875 -1.125 C 4.820312 -0.875 4.648438 -0.660156 4.453125 -0.484375 C 4.253906 -0.304688 4.019531 -0.164062 3.75 -0.0625 C 3.46875 0.0390625 3.164062 0.09375 2.84375 0.09375 Z M 2.84375 -0.40625 C 3.09375 -0.40625 3.320312 -0.46875 3.53125 -0.59375 C 3.738281 -0.71875 3.910156 -0.894531 4.046875 -1.125 C 4.179688 -1.332031 4.28125 -1.570312 4.34375 -1.84375 C 4.414062 -2.113281 4.453125 -2.394531 4.453125 -2.6875 C 4.453125 -2.914062 4.429688 -3.140625 4.390625 -3.359375 C 4.347656 -3.585938 4.28125 -3.796875 4.1875 -3.984375 C 3.988281 -4.398438 3.726562 -4.691406 3.40625 -4.859375 C 3.238281 -4.941406 3.050781 -4.984375 2.84375 -4.984375 C 2.59375 -4.984375 2.359375 -4.921875 2.140625 -4.796875 C 1.929688 -4.671875 1.757812 -4.492188 1.625 -4.265625 C 1.488281 -4.054688 1.382812 -3.816406 1.3125 -3.546875 C 1.25 -3.273438 1.21875 -2.992188 1.21875 -2.703125 C 1.21875 -2.203125 1.304688 -1.765625 1.484375 -1.390625 C 1.578125 -1.179688 1.6875 -1.003906 1.8125 -0.859375 C 1.945312 -0.722656 2.097656 -0.613281 2.265625 -0.53125 C 2.441406 -0.445312 2.632812 -0.40625 2.84375 -0.40625 Z M 2.84375 -0.40625 "/></g></g></g><g fill="#98198e" fill-opacity="1"><g transform="translate(99.187101, 42.634089)"><g><path d="M 2.859375 0.09375 C 2.503906 0.09375 2.191406 0.046875 1.921875 -0.046875 C 1.660156 -0.140625 1.453125 -0.273438 1.296875 -0.453125 C 0.992188 -0.804688 0.84375 -1.269531 0.84375 -1.84375 L 0.84375 -4.859375 L 0.078125 -4.859375 L 0.078125 -5.375 L 2.46875 -5.375 L 2.46875 -4.859375 L 1.6875 -4.859375 L 1.6875 -1.796875 C 1.6875 -0.867188 2.101562 -0.40625 2.9375 -0.40625 C 3.34375 -0.40625 3.648438 -0.519531 3.859375 -0.75 C 4.078125 -0.988281 4.1875 -1.34375 4.1875 -1.8125 L 4.1875 -4.859375 L 3.375 -4.859375 L 3.375 -5.375 L 5.65625 -5.375 L 5.65625 -4.859375 L 4.90625 -4.859375 L 4.90625 -1.953125 C 4.90625 -1.703125 4.882812 -1.476562 4.84375 -1.28125 C 4.800781 -1.082031 4.738281 -0.898438 4.65625 -0.734375 C 4.550781 -0.546875 4.421875 -0.394531 4.265625 -0.28125 C 4.117188 -0.164062 3.925781 -0.0703125 3.6875 0 C 3.445312 0.0625 3.171875 0.09375 2.859375 0.09375 Z M 2.859375 0.09375 "/></g></g></g><g fill="#98198e" fill-opacity="1"><g transform="translate(106.717416, 42.634089)"><g><path d="M 0.125 0 L 0.125 -0.515625 L 0.984375 -0.515625 L 0.984375 -4.859375 L 0.125 -4.859375 L 0.125 -5.375 L 2.046875 -5.375 L 4.578125 -0.953125 L 4.578125 -4.859375 L 3.71875 -4.859375 L 3.71875 -5.375 L 6.078125 -5.375 L 6.078125 -4.859375 L 5.265625 -4.859375 L 5.265625 0 L 4.3125 0 L 1.65625 -4.609375 L 1.65625 -0.515625 L 2.484375 -0.515625 L 2.484375 0 Z M 0.125 0 "/></g></g></g><g fill="#98198e" fill-opacity="1"><g transform="translate(114.665922, 42.634089)"><g><path d="M 0.125 -0.515625 L 0.984375 -0.515625 L 0.984375 -4.859375 L 0.125 -4.859375 L 0.125 -5.375 L 1.734375 -5.375 C 2.140625 -5.375 2.503906 -5.347656 2.828125 -5.296875 C 3.148438 -5.242188 3.460938 -5.160156 3.765625 -5.046875 C 4.085938 -4.910156 4.359375 -4.742188 4.578125 -4.546875 C 4.796875 -4.347656 4.972656 -4.097656 5.109375 -3.796875 C 5.234375 -3.484375 5.296875 -3.125 5.296875 -2.71875 C 5.296875 -2.34375 5.242188 -2.003906 5.140625 -1.703125 C 5.035156 -1.398438 4.878906 -1.140625 4.671875 -0.921875 C 4.472656 -0.710938 4.226562 -0.535156 3.9375 -0.390625 C 3.65625 -0.253906 3.34375 -0.15625 3 -0.09375 C 2.65625 -0.03125 2.273438 0 1.859375 0 L 0.125 0 Z M 1.828125 -0.515625 C 2.140625 -0.515625 2.414062 -0.535156 2.65625 -0.578125 C 2.894531 -0.617188 3.125 -0.691406 3.34375 -0.796875 C 3.570312 -0.898438 3.757812 -1.035156 3.90625 -1.203125 C 4.050781 -1.367188 4.164062 -1.578125 4.25 -1.828125 C 4.34375 -2.078125 4.390625 -2.375 4.390625 -2.71875 C 4.390625 -2.96875 4.363281 -3.195312 4.3125 -3.40625 C 4.269531 -3.613281 4.203125 -3.789062 4.109375 -3.9375 C 4.023438 -4.082031 3.921875 -4.207031 3.796875 -4.3125 C 3.671875 -4.425781 3.535156 -4.519531 3.390625 -4.59375 C 3.253906 -4.65625 3.097656 -4.707031 2.921875 -4.75 C 2.742188 -4.789062 2.566406 -4.816406 2.390625 -4.828125 C 2.210938 -4.847656 2.023438 -4.859375 1.828125 -4.859375 Z M 1.828125 -0.515625 "/></g></g></g><g fill="#98198e" fill-opacity="1"><g transform="translate(122.071137, 42.634089)"><g><path d="M 0.03125 0 L 0.03125 -0.515625 L 0.671875 -0.515625 L 2.546875 -5.375 L 3.40625 -5.375 L 5.3125 -0.515625 L 5.90625 -0.515625 L 5.90625 0 L 3.59375 0 L 3.59375 -0.515625 L 4.390625 -0.515625 L 3.90625 -1.796875 L 1.828125 -1.796875 L 1.375 -0.515625 L 2.265625 -0.515625 L 2.265625 0 Z M 2 -2.25 L 3.71875 -2.25 L 2.84375 -4.671875 Z M 2 -2.25 "/></g></g></g><g fill="#98198e" fill-opacity="1"><g transform="translate(129.812334, 42.634089)"><g><path d="M 1.328125 0 L 1.328125 -0.515625 L 2.15625 -0.515625 L 2.15625 -4.859375 L 0.796875 -4.859375 L 0.796875 -3.203125 L 0.125 -3.203125 L 0.125 -5.375 L 5 -5.375 L 5 -3.203125 L 4.328125 -3.203125 L 4.328125 -4.859375 L 3 -4.859375 L 3 -0.515625 L 3.859375 -0.515625 L 3.859375 0 Z M 1.328125 0 "/></g></g></g><g fill="#98198e" fill-opacity="1"><g transform="translate(136.742173, 42.634089)"><g><path d="M 0.109375 0 L 0.109375 -0.515625 L 0.984375 -0.515625 L 0.984375 -4.859375 L 0.109375 -4.859375 L 0.109375 -5.375 L 2.640625 -5.375 L 2.640625 -4.859375 L 1.8125 -4.859375 L 1.8125 -0.515625 L 2.640625 -0.515625 L 2.640625 0 Z M 0.109375 0 "/></g></g></g><g fill="#98198e" fill-opacity="1"><g transform="translate(141.291539, 42.634089)"><g><path d="M 2.84375 0.09375 C 2.519531 0.09375 2.21875 0.0390625 1.9375 -0.0625 C 1.65625 -0.164062 1.410156 -0.304688 1.203125 -0.484375 C 1.015625 -0.660156 0.847656 -0.867188 0.703125 -1.109375 C 0.566406 -1.347656 0.46875 -1.601562 0.40625 -1.875 C 0.332031 -2.132812 0.296875 -2.40625 0.296875 -2.6875 C 0.296875 -3.269531 0.429688 -3.796875 0.703125 -4.265625 C 0.847656 -4.515625 1.019531 -4.726562 1.21875 -4.90625 C 1.414062 -5.082031 1.648438 -5.222656 1.921875 -5.328125 C 2.203125 -5.429688 2.507812 -5.484375 2.84375 -5.484375 C 3.164062 -5.484375 3.46875 -5.429688 3.75 -5.328125 C 4.03125 -5.222656 4.269531 -5.078125 4.46875 -4.890625 C 4.664062 -4.710938 4.832031 -4.503906 4.96875 -4.265625 C 5.101562 -4.023438 5.207031 -3.773438 5.28125 -3.515625 C 5.34375 -3.242188 5.375 -2.96875 5.375 -2.6875 C 5.375 -2.113281 5.238281 -1.59375 4.96875 -1.125 C 4.820312 -0.875 4.648438 -0.660156 4.453125 -0.484375 C 4.253906 -0.304688 4.019531 -0.164062 3.75 -0.0625 C 3.46875 0.0390625 3.164062 0.09375 2.84375 0.09375 Z M 2.84375 -0.40625 C 3.09375 -0.40625 3.320312 -0.46875 3.53125 -0.59375 C 3.738281 -0.71875 3.910156 -0.894531 4.046875 -1.125 C 4.179688 -1.332031 4.28125 -1.570312 4.34375 -1.84375 C 4.414062 -2.113281 4.453125 -2.394531 4.453125 -2.6875 C 4.453125 -2.914062 4.429688 -3.140625 4.390625 -3.359375 C 4.347656 -3.585938 4.28125 -3.796875 4.1875 -3.984375 C 3.988281 -4.398438 3.726562 -4.691406 3.40625 -4.859375 C 3.238281 -4.941406 3.050781 -4.984375 2.84375 -4.984375 C 2.59375 -4.984375 2.359375 -4.921875 2.140625 -4.796875 C 1.929688 -4.671875 1.757812 -4.492188 1.625 -4.265625 C 1.488281 -4.054688 1.382812 -3.816406 1.3125 -3.546875 C 1.25 -3.273438 1.21875 -2.992188 1.21875 -2.703125 C 1.21875 -2.203125 1.304688 -1.765625 1.484375 -1.390625 C 1.578125 -1.179688 1.6875 -1.003906 1.8125 -0.859375 C 1.945312 -0.722656 2.097656 -0.613281 2.265625 -0.53125 C 2.441406 -0.445312 2.632812 -0.40625 2.84375 -0.40625 Z M 2.84375 -0.40625 "/></g></g></g><g fill="#98198e" fill-opacity="1"><g transform="translate(148.771811, 42.634089)"><g><path d="M 0.125 0 L 0.125 -0.515625 L 0.984375 -0.515625 L 0.984375 -4.859375 L 0.125 -4.859375 L 0.125 -5.375 L 2.046875 -5.375 L 4.578125 -0.953125 L 4.578125 -4.859375 L 3.71875 -4.859375 L 3.71875 -5.375 L 6.078125 -5.375 L 6.078125 -4.859375 L 5.265625 -4.859375 L 5.265625 0 L 4.3125 0 L 1.65625 -4.609375 L 1.65625 -0.515625 L 2.484375 -0.515625 L 2.484375 0 Z M 0.125 0 "/></g></g></g></svg>