<svg xmlns="http://www.w3.org/2000/svg" xmlns:xlink="http://www.w3.org/1999/xlink" width="500" zoomAndPan="magnify" viewBox="0 0 375 374.999991" height="500" preserveAspectRatio="xMidYMid meet" version="1.0"><defs><g/><clipPath id="91cd595c8d"><path d="M 127 107 L 187 107 L 187 145 L 127 145 Z M 127 107 " clip-rule="nonzero"/></clipPath><clipPath id="3fe7d68aa5"><path d="M 144.449219 72.917969 L 262.496094 104.699219 L 230.714844 222.746094 L 112.667969 190.964844 Z M 144.449219 72.917969 " clip-rule="nonzero"/></clipPath><clipPath id="21fe50a1e9"><path d="M 144.449219 72.917969 L 262.496094 104.699219 L 230.714844 222.746094 L 112.667969 190.964844 Z M 144.449219 72.917969 " clip-rule="nonzero"/></clipPath><clipPath id="c8a7197131"><path d="M 166 123 L 179 123 L 179 136 L 166 136 Z M 166 123 " clip-rule="nonzero"/></clipPath><clipPath id="bf4d2c929f"><path d="M 144.449219 72.917969 L 262.496094 104.699219 L 230.714844 222.746094 L 112.667969 190.964844 Z M 144.449219 72.917969 " clip-rule="nonzero"/></clipPath><clipPath id="6761b824a7"><path d="M 144.449219 72.917969 L 262.496094 104.699219 L 230.714844 222.746094 L 112.667969 190.964844 Z M 144.449219 72.917969 " clip-rule="nonzero"/></clipPath><clipPath id="6ffc3bfbce"><path d="M 177 82 L 217 82 L 217 141 L 177 141 Z M 177 82 " clip-rule="nonzero"/></clipPath><clipPath id="eeadd3b9be"><path d="M 144.449219 72.917969 L 262.496094 104.699219 L 230.714844 222.746094 L 112.667969 190.964844 Z M 144.449219 72.917969 " clip-rule="nonzero"/></clipPath><clipPath id="1e2db01adf"><path d="M 144.449219 72.917969 L 262.496094 104.699219 L 230.714844 222.746094 L 112.667969 190.964844 Z M 144.449219 72.917969 " clip-rule="nonzero"/></clipPath><clipPath id="42d288d5f0"><path d="M 194 116 L 208 116 L 208 129 L 194 129 Z M 194 116 " clip-rule="nonzero"/></clipPath><clipPath id="624be77efc"><path d="M 144.449219 72.917969 L 262.496094 104.699219 L 230.714844 222.746094 L 112.667969 190.964844 Z M 144.449219 72.917969 " clip-rule="nonzero"/></clipPath><clipPath id="e0a285ed65"><path d="M 144.449219 72.917969 L 262.496094 104.699219 L 230.714844 222.746094 L 112.667969 190.964844 Z M 144.449219 72.917969 " clip-rule="nonzero"/></clipPath><clipPath id="a35c0aa854"><path d="M 197 113 L 248 113 L 248 156 L 197 156 Z M 197 113 " clip-rule="nonzero"/></clipPath><clipPath id="a60e097bed"><path d="M 144.449219 72.917969 L 262.496094 104.699219 L 230.714844 222.746094 L 112.667969 190.964844 Z M 144.449219 72.917969 " clip-rule="nonzero"/></clipPath><clipPath id="3572092775"><path d="M 144.449219 72.917969 L 262.496094 104.699219 L 230.714844 222.746094 L 112.667969 190.964844 Z M 144.449219 72.917969 " clip-rule="nonzero"/></clipPath><clipPath id="e60f52bac8"><path d="M 210 141 L 223 141 L 223 155 L 210 155 Z M 210 141 " clip-rule="nonzero"/></clipPath><clipPath id="a7719519ab"><path d="M 144.449219 72.917969 L 262.496094 104.699219 L 230.714844 222.746094 L 112.667969 190.964844 Z M 144.449219 72.917969 " clip-rule="nonzero"/></clipPath><clipPath id="866cca1ccd"><path d="M 144.449219 72.917969 L 262.496094 104.699219 L 230.714844 222.746094 L 112.667969 190.964844 Z M 144.449219 72.917969 " clip-rule="nonzero"/></clipPath><clipPath id="8116968e8f"><path d="M 193 151 L 240 151 L 240 200 L 193 200 Z M 193 151 " clip-rule="nonzero"/></clipPath><clipPath id="fa0da82ed1"><path d="M 144.449219 72.917969 L 262.496094 104.699219 L 230.714844 222.746094 L 112.667969 190.964844 Z M 144.449219 72.917969 " clip-rule="nonzero"/></clipPath><clipPath id="ea286093cc"><path d="M 144.449219 72.917969 L 262.496094 104.699219 L 230.714844 222.746094 L 112.667969 190.964844 Z M 144.449219 72.917969 " clip-rule="nonzero"/></clipPath><clipPath id="f8d91bf879"><path d="M 193.40625 150.941406 L 246.050781 165.113281 L 234.277344 208.851562 L 181.632812 194.679688 Z M 193.40625 150.941406 " clip-rule="nonzero"/></clipPath><clipPath id="bb57916d0d"><path d="M 190 164 L 204 164 L 204 177 L 190 177 Z M 190 164 " clip-rule="nonzero"/></clipPath><clipPath id="77f0cfabc6"><path d="M 144.449219 72.917969 L 262.496094 104.699219 L 230.714844 222.746094 L 112.667969 190.964844 Z M 144.449219 72.917969 " clip-rule="nonzero"/></clipPath><clipPath id="131189d90e"><path d="M 144.449219 72.917969 L 262.496094 104.699219 L 230.714844 222.746094 L 112.667969 190.964844 Z M 144.449219 72.917969 " clip-rule="nonzero"/></clipPath><clipPath id="e7e29ea3f7"><path d="M 143 149 L 188 149 L 188 206 L 143 206 Z M 143 149 " clip-rule="nonzero"/></clipPath><clipPath id="708304f445"><path d="M 144.449219 72.917969 L 262.496094 104.699219 L 230.714844 222.746094 L 112.667969 190.964844 Z M 144.449219 72.917969 " clip-rule="nonzero"/></clipPath><clipPath id="d5c446c152"><path d="M 144.449219 72.917969 L 262.496094 104.699219 L 230.714844 222.746094 L 112.667969 190.964844 Z M 144.449219 72.917969 " clip-rule="nonzero"/></clipPath><clipPath id="2fd075494b"><path d="M 150.953125 139.75 L 187.625 149.625 L 172.160156 207.070312 L 135.488281 197.195312 Z M 150.953125 139.75 " clip-rule="nonzero"/></clipPath><clipPath id="f9ccb178a3"><path d="M 163 152 L 176 152 L 176 166 L 163 166 Z M 163 152 " clip-rule="nonzero"/></clipPath><clipPath id="7a4fa8926e"><path d="M 144.449219 72.917969 L 262.496094 104.699219 L 230.714844 222.746094 L 112.667969 190.964844 Z M 144.449219 72.917969 " clip-rule="nonzero"/></clipPath><clipPath id="eaa2b2b1c5"><path d="M 144.449219 72.917969 L 262.496094 104.699219 L 230.714844 222.746094 L 112.667969 190.964844 Z M 144.449219 72.917969 " clip-rule="nonzero"/></clipPath></defs><rect x="-37.5" width="450" fill="#ffffff" y="-37.499999" height="449.999989" fill-opacity="1"/><rect x="-37.5" width="450" fill="#ffffff" y="-37.499999" height="449.999989" fill-opacity="1"/><g clip-path="url(#91cd595c8d)"><g clip-path="url(#3fe7d68aa5)"><g clip-path="url(#21fe50a1e9)"><path fill="#737373" d="M 186.09375 143.410156 C 186.882812 143.425781 187.027344 142.292969 186.257812 142.105469 L 164.515625 135.023438 C 164.457031 134.800781 164.390625 134.574219 164.308594 134.351562 L 160.542969 123.625 L 154.9375 107.660156 C 154.675781 106.917969 153.5625 107.175781 153.65625 107.960938 C 153.65625 107.960938 160.511719 129.269531 150.945312 135.289062 C 145.984375 138.410156 127.679688 138.214844 127.679688 138.214844 C 126.886719 138.242188 126.800781 139.378906 127.578125 139.527344 C 132.160156 140.386719 136.738281 141.269531 141.316406 142.167969 C 145.757812 143.039062 150.417969 144.484375 154.945312 144.527344 C 155.359375 144.53125 155.769531 144.523438 156.179688 144.503906 C 158.5 144.402344 160.777344 143.933594 163.054688 143.527344 C 165.292969 143.125 167.214844 143.09375 169.453125 143.140625 C 171.8125 143.191406 174.167969 143.21875 176.527344 143.257812 C 179.714844 143.308594 182.90625 143.359375 186.09375 143.410156 " fill-opacity="1" fill-rule="nonzero"/></g></g></g><g clip-path="url(#c8a7197131)"><g clip-path="url(#bf4d2c929f)"><g clip-path="url(#6761b824a7)"><path fill="#737373" d="M 167.753906 125.476562 C 165.417969 128.199219 165.515625 132.117188 167.972656 134.230469 C 170.429688 136.339844 174.320312 135.84375 176.65625 133.121094 C 178.996094 130.398438 178.898438 126.480469 176.441406 124.371094 C 173.980469 122.257812 170.09375 122.753906 167.753906 125.476562 " fill-opacity="1" fill-rule="nonzero"/></g></g></g><g clip-path="url(#6ffc3bfbce)"><g clip-path="url(#eeadd3b9be)"><g clip-path="url(#1e2db01adf)"><path fill="#f14624" d="M 192.277344 140.097656 C 192.507812 140.855469 193.632812 140.640625 193.570312 139.851562 L 193.585938 116.980469 C 193.78125 116.859375 193.972656 116.726562 194.164062 116.582031 L 203.203125 109.683594 L 216.648438 99.421875 C 217.277344 98.941406 216.6875 97.960938 215.972656 98.292969 C 215.972656 98.292969 197.820312 111.398438 189.140625 104.160156 C 184.636719 100.40625 179.167969 82.9375 179.167969 82.9375 C 178.898438 82.191406 177.789062 82.460938 177.890625 83.246094 C 178.488281 87.871094 179.0625 92.5 179.625 97.128906 C 180.167969 101.621094 180.230469 106.5 181.59375 110.820312 C 181.714844 111.210938 181.847656 111.601562 181.992188 111.988281 C 182.804688 114.160156 183.957031 116.179688 185.046875 118.21875 C 186.121094 120.226562 186.746094 122.046875 187.394531 124.191406 C 188.074219 126.445312 188.777344 128.699219 189.46875 130.953125 C 190.40625 134 191.339844 137.050781 192.277344 140.097656 " fill-opacity="1" fill-rule="nonzero"/></g></g></g><g clip-path="url(#42d288d5f0)"><g clip-path="url(#624be77efc)"><g clip-path="url(#e0a285ed65)"><path fill="#f14624" d="M 203.667969 117.113281 C 200.355469 115.734375 196.65625 117.035156 195.410156 120.027344 C 194.160156 123.015625 195.835938 126.5625 199.148438 127.945312 C 202.460938 129.328125 206.15625 128.023438 207.402344 125.03125 C 208.652344 122.042969 206.980469 118.496094 203.667969 117.113281 " fill-opacity="1" fill-rule="nonzero"/></g></g></g><g clip-path="url(#a35c0aa854)"><g clip-path="url(#a60e097bed)"><g clip-path="url(#3572092775)"><path fill="#ffde59" d="M 197.339844 144.957031 C 196.691406 145.410156 197.242188 146.410156 197.972656 146.109375 L 219.730469 139.058594 C 219.90625 139.203125 220.09375 139.347656 220.289062 139.480469 L 229.640625 145.945312 L 243.558594 155.5625 C 244.207031 156.015625 244.957031 155.152344 244.417969 154.570312 C 244.417969 154.570312 226.347656 141.359375 230.550781 130.867188 C 232.726562 125.421875 247.652344 114.824219 247.652344 114.824219 C 248.277344 114.339844 247.675781 113.367188 246.964844 113.703125 C 242.75 115.699219 238.527344 117.675781 234.296875 119.640625 C 230.191406 121.546875 225.570312 123.117188 221.882812 125.746094 C 221.546875 125.984375 221.21875 126.230469 220.894531 126.488281 C 219.082031 127.933594 217.515625 129.652344 215.910156 131.320312 C 214.335938 132.960938 212.796875 134.117188 210.960938 135.394531 C 209.023438 136.738281 207.101562 138.101562 205.171875 139.457031 C 202.558594 141.289062 199.949219 143.121094 197.339844 144.957031 " fill-opacity="1" fill-rule="nonzero"/></g></g></g><g clip-path="url(#e60f52bac8)"><g clip-path="url(#a7719519ab)"><g clip-path="url(#866cca1ccd)"><path fill="#ffde59" d="M 222.71875 148.683594 C 223.007812 145.109375 220.625 141.996094 217.394531 141.730469 C 214.167969 141.46875 211.3125 144.15625 211.019531 147.734375 C 210.730469 151.308594 213.113281 154.421875 216.34375 154.6875 C 219.570312 154.949219 222.425781 152.261719 222.71875 148.683594 " fill-opacity="1" fill-rule="nonzero"/></g></g></g><g clip-path="url(#8116968e8f)"><g clip-path="url(#fa0da82ed1)"><g clip-path="url(#ea286093cc)"><g clip-path="url(#f8d91bf879)"><path fill="#cb6ce6" d="M 194.285156 151.269531 C 193.652344 150.792969 192.871094 151.628906 193.382812 152.226562 L 206.8125 170.742188 C 206.726562 170.957031 206.648438 171.175781 206.582031 171.402344 L 203.324219 182.296875 L 198.476562 198.503906 C 198.25 199.261719 199.300781 199.707031 199.6875 199.015625 C 199.6875 199.015625 206.667969 177.75 217.945312 178.5 C 223.796875 178.890625 238.488281 189.808594 238.488281 189.808594 C 239.144531 190.253906 239.882812 189.382812 239.339844 188.808594 C 236.140625 185.417969 232.953125 182.011719 229.777344 178.597656 C 226.695312 175.28125 223.777344 171.371094 220.136719 168.675781 C 219.808594 168.429688 219.46875 168.195312 219.125 167.96875 C 217.191406 166.6875 215.074219 165.730469 212.992188 164.722656 C 210.945312 163.730469 209.367188 162.625 207.585938 161.269531 C 205.710938 159.84375 203.816406 158.4375 201.933594 157.019531 C 199.382812 155.101562 196.832031 153.1875 194.285156 151.269531 " fill-opacity="1" fill-rule="nonzero"/></g></g></g></g><g clip-path="url(#bb57916d0d)"><g clip-path="url(#77f0cfabc6)"><g clip-path="url(#131189d90e)"><path fill="#cb6ce6" d="M 198.578125 176.558594 C 202.070312 175.730469 204.296875 172.503906 203.546875 169.351562 C 202.800781 166.195312 199.363281 164.3125 195.871094 165.140625 C 192.378906 165.96875 190.152344 169.199219 190.902344 172.351562 C 191.648438 175.503906 195.085938 177.386719 198.578125 176.558594 " fill-opacity="1" fill-rule="nonzero"/></g></g></g><g clip-path="url(#e7e29ea3f7)"><g clip-path="url(#708304f445)"><g clip-path="url(#d5c446c152)"><g clip-path="url(#2fd075494b)"><path fill="#51ade5" d="M 187.335938 150.316406 C 187.589844 149.566406 186.558594 149.082031 186.144531 149.757812 L 172.6875 168.246094 C 172.457031 168.234375 172.222656 168.226562 171.984375 168.234375 L 160.617188 168.5 L 143.707031 168.898438 C 142.917969 168.917969 142.820312 170.054688 143.59375 170.210938 C 143.59375 170.210938 165.980469 170.277344 168.746094 181.234375 C 170.183594 186.917969 164.339844 204.265625 164.339844 204.265625 C 164.121094 205.027344 165.175781 205.460938 165.558594 204.769531 C 167.792969 200.675781 170.046875 196.59375 172.3125 192.515625 C 174.515625 188.5625 177.332031 184.578125 178.769531 180.285156 C 178.898438 179.894531 179.019531 179.5 179.132812 179.101562 C 179.75 176.867188 180.007812 174.558594 180.324219 172.265625 C 180.632812 170.011719 181.199219 168.171875 181.933594 166.058594 C 182.710938 163.832031 183.464844 161.597656 184.230469 159.367188 C 185.265625 156.351562 186.300781 153.332031 187.335938 150.316406 " fill-opacity="1" fill-rule="nonzero"/></g></g></g></g><g clip-path="url(#f9ccb178a3)"><g clip-path="url(#7a4fa8926e)"><g clip-path="url(#eaa2b2b1c5)"><path fill="#51ade5" d="M 164.609375 162.214844 C 166.476562 165.28125 170.234375 166.398438 173.003906 164.714844 C 175.769531 163.027344 176.5 159.175781 174.632812 156.109375 C 172.765625 153.046875 169.007812 151.929688 166.242188 153.613281 C 163.472656 155.300781 162.742188 159.152344 164.609375 162.214844 " fill-opacity="1" fill-rule="nonzero"/></g></g></g><path fill="#ffde59" d="M 259.074219 119.675781 C 258.5 127.714844 250.210938 138.992188 255.53125 152.011719 C 262.121094 168.132812 253.152344 179.945312 256.945312 181.492188 C 260.742188 183.039062 264.460938 170.636719 266.207031 163.386719 C 267.785156 156.824219 269.804688 186.683594 258.050781 198.828125 C 256.753906 200.171875 257.582031 202.417969 259.4375 202.621094 C 260.140625 202.695312 260.839844 202.4375 261.324219 201.917969 C 265.222656 197.734375 282.027344 177.5625 280 142.324219 C 277.707031 102.503906 246.816406 79.613281 246.816406 79.613281 C 246.816406 79.613281 260.546875 99.035156 259.074219 119.675781 " fill-opacity="1" fill-rule="nonzero"/><path fill="#51ade5" d="M 215.671875 219.429688 C 207.632812 218.855469 196.351562 210.5625 183.332031 215.882812 C 167.210938 222.472656 155.402344 213.503906 153.855469 217.300781 C 152.308594 221.09375 164.710938 224.816406 171.960938 226.558594 C 178.519531 228.136719 148.660156 230.160156 136.515625 218.40625 C 135.175781 217.109375 132.929688 217.9375 132.726562 219.789062 C 132.652344 220.492188 132.910156 221.191406 133.425781 221.675781 C 137.609375 225.578125 157.785156 242.378906 193.019531 240.351562 C 232.839844 238.0625 255.730469 207.171875 255.730469 207.171875 C 255.730469 207.171875 236.3125 220.902344 215.671875 219.429688 " fill-opacity="1" fill-rule="nonzero"/><path fill="#737373" d="M 115.917969 176.023438 C 116.488281 167.988281 124.785156 156.707031 119.460938 143.6875 C 112.875 127.566406 121.839844 115.753906 118.046875 114.207031 C 114.25 112.660156 110.53125 125.0625 108.785156 132.3125 C 107.210938 138.875 105.1875 109.015625 116.941406 96.871094 C 118.234375 95.527344 117.410156 93.28125 115.558594 93.078125 C 114.851562 93.003906 114.152344 93.261719 113.671875 93.78125 C 109.769531 97.964844 92.964844 118.136719 94.992188 153.371094 C 97.285156 193.195312 128.175781 216.085938 128.175781 216.085938 C 128.175781 216.085938 114.445312 196.664062 115.917969 176.023438 " fill-opacity="1" fill-rule="nonzero"/><path fill="#f14624" d="M 159.320312 76.269531 C 167.359375 76.84375 178.640625 85.136719 191.65625 79.816406 C 207.78125 73.226562 219.589844 82.195312 221.136719 78.398438 C 222.683594 74.605469 210.28125 70.882812 203.03125 69.140625 C 196.472656 67.5625 226.332031 65.539062 238.476562 77.292969 C 239.816406 78.589844 242.0625 77.761719 242.265625 75.910156 C 242.339844 75.207031 242.085938 74.507812 241.566406 74.023438 C 237.382812 70.121094 217.207031 53.320312 181.972656 55.347656 C 142.152344 57.636719 119.261719 88.527344 119.261719 88.527344 C 119.261719 88.527344 138.679688 74.800781 159.320312 76.269531 " fill-opacity="1" fill-rule="nonzero"/><g fill="#51ade5" fill-opacity="1"><g transform="translate(111.758113, 267.172454)"><g><path d="M 7.046875 -13.296875 C 8.722656 -13.296875 10.019531 -12.898438 10.9375 -12.109375 C 11.851562 -11.316406 12.3125 -10.203125 12.3125 -8.765625 C 12.3125 -7.253906 11.851562 -6.082031 10.9375 -5.25 C 10.019531 -4.425781 8.722656 -4.015625 7.046875 -4.015625 L 3.984375 -4.015625 L 3.984375 0 L 1.75 0 L 1.75 -13.296875 Z M 6.953125 -6.015625 C 7.992188 -6.015625 8.789062 -6.238281 9.34375 -6.6875 C 9.894531 -7.144531 10.171875 -7.816406 10.171875 -8.703125 C 10.171875 -9.566406 9.894531 -10.210938 9.34375 -10.640625 C 8.789062 -11.066406 7.992188 -11.28125 6.953125 -11.28125 L 3.984375 -11.28125 L 3.984375 -6.015625 Z M 6.953125 -6.015625 "/></g></g></g><g fill="#51ade5" fill-opacity="1"><g transform="translate(124.542502, 267.172454)"><g><path d="M 3.71875 -5.453125 C 3.71875 -4.335938 4.035156 -3.457031 4.671875 -2.8125 C 5.304688 -2.175781 6.160156 -1.859375 7.234375 -1.859375 C 8.296875 -1.859375 9.140625 -2.175781 9.765625 -2.8125 C 10.390625 -3.445312 10.703125 -4.328125 10.703125 -5.453125 L 10.703125 -13.296875 L 12.9375 -13.296875 L 12.9375 -5.453125 C 12.9375 -4.296875 12.707031 -3.296875 12.25 -2.453125 C 11.800781 -1.617188 11.144531 -0.972656 10.28125 -0.515625 C 9.414062 -0.0546875 8.398438 0.171875 7.234375 0.171875 C 6.054688 0.171875 5.035156 -0.0546875 4.171875 -0.515625 C 3.304688 -0.972656 2.640625 -1.617188 2.171875 -2.453125 C 1.710938 -3.296875 1.484375 -4.296875 1.484375 -5.453125 L 1.484375 -13.296875 L 3.71875 -13.296875 Z M 3.71875 -5.453125 "/></g></g></g><g fill="#51ade5" fill-opacity="1"><g transform="translate(138.960557, 267.172454)"><g><path d="M 12.734375 0 L 10.1875 0 L 7.75 -4.03125 C 7.625 -4.019531 7.421875 -4.015625 7.140625 -4.015625 L 3.984375 -4.015625 L 3.984375 0 L 1.75 0 L 1.75 -13.296875 L 7.140625 -13.296875 C 8.835938 -13.296875 10.15625 -12.898438 11.09375 -12.109375 C 12.03125 -11.316406 12.5 -10.203125 12.5 -8.765625 C 12.5 -7.691406 12.257812 -6.785156 11.78125 -6.046875 C 11.3125 -5.316406 10.632812 -4.785156 9.75 -4.453125 Z M 3.984375 -6.015625 L 7.140625 -6.015625 C 8.179688 -6.015625 8.976562 -6.238281 9.53125 -6.6875 C 10.09375 -7.144531 10.375 -7.816406 10.375 -8.703125 C 10.375 -9.566406 10.09375 -10.210938 9.53125 -10.640625 C 8.976562 -11.066406 8.179688 -11.28125 7.140625 -11.28125 L 3.984375 -11.28125 Z M 3.984375 -6.015625 "/></g></g></g><g fill="#51ade5" fill-opacity="1"><g transform="translate(152.694748, 267.172454)"><g><path d="M 3.71875 -5.453125 C 3.71875 -4.335938 4.035156 -3.457031 4.671875 -2.8125 C 5.304688 -2.175781 6.160156 -1.859375 7.234375 -1.859375 C 8.296875 -1.859375 9.140625 -2.175781 9.765625 -2.8125 C 10.390625 -3.445312 10.703125 -4.328125 10.703125 -5.453125 L 10.703125 -13.296875 L 12.9375 -13.296875 L 12.9375 -5.453125 C 12.9375 -4.296875 12.707031 -3.296875 12.25 -2.453125 C 11.800781 -1.617188 11.144531 -0.972656 10.28125 -0.515625 C 9.414062 -0.0546875 8.398438 0.171875 7.234375 0.171875 C 6.054688 0.171875 5.035156 -0.0546875 4.171875 -0.515625 C 3.304688 -0.972656 2.640625 -1.617188 2.171875 -2.453125 C 1.710938 -3.296875 1.484375 -4.296875 1.484375 -5.453125 L 1.484375 -13.296875 L 3.71875 -13.296875 Z M 3.71875 -5.453125 "/></g></g></g><g fill="#51ade5" fill-opacity="1"><g transform="translate(167.112804, 267.172454)"><g><path d="M 9.84375 -10.125 C 9.15625 -10.539062 8.46875 -10.847656 7.78125 -11.046875 C 7.101562 -11.253906 6.492188 -11.359375 5.953125 -11.359375 C 5.285156 -11.359375 4.753906 -11.234375 4.359375 -10.984375 C 3.972656 -10.742188 3.78125 -10.394531 3.78125 -9.9375 C 3.78125 -9.53125 3.90625 -9.191406 4.15625 -8.921875 C 4.414062 -8.660156 4.734375 -8.453125 5.109375 -8.296875 C 5.492188 -8.148438 6.023438 -7.96875 6.703125 -7.75 C 7.609375 -7.46875 8.34375 -7.195312 8.90625 -6.9375 C 9.46875 -6.6875 9.945312 -6.300781 10.34375 -5.78125 C 10.738281 -5.269531 10.9375 -4.597656 10.9375 -3.765625 C 10.9375 -2.972656 10.722656 -2.28125 10.296875 -1.6875 C 9.878906 -1.101562 9.289062 -0.648438 8.53125 -0.328125 C 7.769531 -0.015625 6.898438 0.140625 5.921875 0.140625 C 4.898438 0.140625 3.910156 -0.046875 2.953125 -0.421875 C 2.003906 -0.804688 1.1875 -1.332031 0.5 -2 L 1.46875 -3.9375 C 2.132812 -3.3125 2.867188 -2.820312 3.671875 -2.46875 C 4.484375 -2.125 5.25 -1.953125 5.96875 -1.953125 C 6.738281 -1.953125 7.34375 -2.097656 7.78125 -2.390625 C 8.226562 -2.691406 8.453125 -3.101562 8.453125 -3.625 C 8.453125 -4.039062 8.320312 -4.378906 8.0625 -4.640625 C 7.800781 -4.910156 7.472656 -5.125 7.078125 -5.28125 C 6.691406 -5.445312 6.160156 -5.628906 5.484375 -5.828125 C 4.578125 -6.097656 3.847656 -6.359375 3.296875 -6.609375 C 2.742188 -6.859375 2.265625 -7.238281 1.859375 -7.75 C 1.460938 -8.257812 1.265625 -8.925781 1.265625 -9.75 C 1.265625 -10.5 1.46875 -11.15625 1.875 -11.71875 C 2.28125 -12.28125 2.847656 -12.710938 3.578125 -13.015625 C 4.316406 -13.328125 5.164062 -13.484375 6.125 -13.484375 C 6.957031 -13.484375 7.773438 -13.359375 8.578125 -13.109375 C 9.390625 -12.859375 10.117188 -12.523438 10.765625 -12.109375 Z M 9.84375 -10.125 "/></g></g></g><g fill="#51ade5" fill-opacity="1"><g transform="translate(178.928393, 267.172454)"><g><path d="M 1.75 0 L 1.75 -13.296875 L 3.984375 -13.296875 L 3.984375 -7.53125 L 11.03125 -7.53125 L 11.03125 -13.296875 L 13.28125 -13.296875 L 13.28125 0 L 11.03125 0 L 11.03125 -5.515625 L 3.984375 -5.515625 L 3.984375 0 Z M 1.75 0 "/></g></g></g><g fill="#51ade5" fill-opacity="1"><g transform="translate(193.954324, 267.172454)"><g><path d="M 7.6875 -13.453125 C 9 -13.453125 10.191406 -13.15625 11.265625 -12.5625 C 12.335938 -11.96875 13.1875 -11.148438 13.8125 -10.109375 C 14.4375 -9.066406 14.75 -7.921875 14.75 -6.671875 C 14.75 -5.398438 14.4375 -4.242188 13.8125 -3.203125 C 13.1875 -2.171875 12.335938 -1.347656 11.265625 -0.734375 C 10.191406 -0.128906 9 0.171875 7.6875 0.171875 C 6.382812 0.171875 5.195312 -0.128906 4.125 -0.734375 C 3.050781 -1.347656 2.203125 -2.171875 1.578125 -3.203125 C 0.953125 -4.242188 0.640625 -5.398438 0.640625 -6.671875 C 0.640625 -7.921875 0.953125 -9.066406 1.578125 -10.109375 C 2.203125 -11.148438 3.050781 -11.96875 4.125 -12.5625 C 5.195312 -13.15625 6.382812 -13.453125 7.6875 -13.453125 Z M 7.71875 -11.421875 C 6.851562 -11.421875 6.050781 -11.207031 5.3125 -10.78125 C 4.582031 -10.351562 4 -9.78125 3.5625 -9.0625 C 3.132812 -8.34375 2.921875 -7.546875 2.921875 -6.671875 C 2.921875 -5.796875 3.140625 -4.988281 3.578125 -4.25 C 4.015625 -3.519531 4.597656 -2.9375 5.328125 -2.5 C 6.054688 -2.070312 6.851562 -1.859375 7.71875 -1.859375 C 8.570312 -1.859375 9.359375 -2.070312 10.078125 -2.5 C 10.804688 -2.9375 11.378906 -3.519531 11.796875 -4.25 C 12.222656 -4.988281 12.4375 -5.796875 12.4375 -6.671875 C 12.4375 -7.546875 12.222656 -8.34375 11.796875 -9.0625 C 11.378906 -9.78125 10.804688 -10.351562 10.078125 -10.78125 C 9.359375 -11.207031 8.570312 -11.421875 7.71875 -11.421875 Z M 7.71875 -11.421875 "/></g></g></g><g fill="#51ade5" fill-opacity="1"><g transform="translate(209.341179, 267.172454)"><g><path d="M 0.171875 -11.28125 L 0.171875 -13.296875 L 10.828125 -13.296875 L 10.828125 -11.28125 L 6.609375 -11.28125 L 6.609375 0 L 4.375 0 L 4.375 -11.28125 Z M 0.171875 -11.28125 "/></g></g></g><g fill="#51ade5" fill-opacity="1"><g transform="translate(220.339934, 267.172454)"><g><path d="M 0.171875 -11.28125 L 0.171875 -13.296875 L 10.828125 -13.296875 L 10.828125 -11.28125 L 6.609375 -11.28125 L 6.609375 0 L 4.375 0 L 4.375 -11.28125 Z M 0.171875 -11.28125 "/></g></g></g><g fill="#51ade5" fill-opacity="1"><g transform="translate(231.33869, 267.172454)"><g><path d="M 14 0 L 11.609375 0 L 10.34375 -3 L 3.625 -3 L 2.359375 0 L 0.015625 0 L 5.890625 -13.296875 L 8.1875 -13.296875 Z M 6.96875 -10.90625 L 4.46875 -5 L 9.484375 -5 Z M 6.96875 -10.90625 "/></g></g></g><g fill="#51ade5" fill-opacity="1"><g transform="translate(245.357827, 267.172454)"><g><path d="M 1.75 0 L 1.75 -13.296875 L 4.34375 -13.296875 L 8.953125 -4.40625 L 13.515625 -13.296875 L 16.109375 -13.296875 L 16.109375 0 L 14.046875 0 L 14.015625 -9.96875 L 9.65625 -1.390625 L 8.234375 -1.390625 L 3.8125 -9.96875 L 3.8125 0 Z M 1.75 0 "/></g></g></g><g fill="#98198e" fill-opacity="1"><g transform="translate(130.067882, 309.604696)"><g><path d="M 0.1875 0 L 0.1875 -0.84375 L 1.625 -0.84375 L 1.625 -7.984375 L 0.1875 -7.984375 L 0.1875 -8.8125 L 8.046875 -8.8125 L 8.046875 -5.609375 L 6.984375 -5.609375 L 6.984375 -7.984375 L 3 -7.984375 L 3 -4.953125 L 5.109375 -4.953125 L 5.109375 -6.1875 L 5.921875 -6.1875 L 5.921875 -2.765625 L 5.109375 -2.765625 L 5.109375 -4.25 L 3 -4.25 L 3 -0.84375 L 4.53125 -0.84375 L 4.53125 0 Z M 0.1875 0 "/></g></g></g><g fill="#98198e" fill-opacity="1"><g transform="translate(141.27574, 309.604696)"><g><path d="M 4.65625 0.15625 C 4.125 0.15625 3.628906 0.0703125 3.171875 -0.09375 C 2.710938 -0.269531 2.316406 -0.503906 1.984375 -0.796875 C 1.660156 -1.097656 1.382812 -1.441406 1.15625 -1.828125 C 0.925781 -2.222656 0.757812 -2.640625 0.65625 -3.078125 C 0.550781 -3.515625 0.5 -3.960938 0.5 -4.421875 C 0.5 -5.367188 0.71875 -6.226562 1.15625 -7 C 1.382812 -7.40625 1.660156 -7.753906 1.984375 -8.046875 C 2.316406 -8.335938 2.707031 -8.570312 3.15625 -8.75 C 3.625 -8.914062 4.125 -9 4.65625 -9 C 5.1875 -9 5.679688 -8.910156 6.140625 -8.734375 C 6.609375 -8.566406 7.007812 -8.332031 7.34375 -8.03125 C 7.65625 -7.738281 7.925781 -7.394531 8.15625 -7 C 8.382812 -6.613281 8.550781 -6.203125 8.65625 -5.765625 C 8.757812 -5.328125 8.8125 -4.878906 8.8125 -4.421875 C 8.8125 -3.460938 8.59375 -2.597656 8.15625 -1.828125 C 7.925781 -1.421875 7.644531 -1.070312 7.3125 -0.78125 C 6.988281 -0.5 6.609375 -0.273438 6.171875 -0.109375 C 5.703125 0.0664062 5.195312 0.15625 4.65625 0.15625 Z M 4.65625 -0.65625 C 5.070312 -0.65625 5.453125 -0.757812 5.796875 -0.96875 C 6.140625 -1.1875 6.421875 -1.472656 6.640625 -1.828125 C 6.859375 -2.179688 7.023438 -2.578125 7.140625 -3.015625 C 7.253906 -3.460938 7.3125 -3.925781 7.3125 -4.40625 C 7.3125 -4.789062 7.273438 -5.164062 7.203125 -5.53125 C 7.140625 -5.894531 7.03125 -6.234375 6.875 -6.546875 C 6.550781 -7.234375 6.125 -7.707031 5.59375 -7.96875 C 5.3125 -8.113281 5 -8.1875 4.65625 -8.1875 C 4.25 -8.1875 3.875 -8.078125 3.53125 -7.859375 C 3.1875 -7.648438 2.898438 -7.367188 2.671875 -7.015625 C 2.453125 -6.648438 2.285156 -6.242188 2.171875 -5.796875 C 2.054688 -5.359375 2 -4.90625 2 -4.4375 C 2 -3.625 2.144531 -2.90625 2.4375 -2.28125 C 2.59375 -1.945312 2.773438 -1.660156 2.984375 -1.421875 C 3.191406 -1.191406 3.4375 -1.007812 3.71875 -0.875 C 4.007812 -0.726562 4.320312 -0.65625 4.65625 -0.65625 Z M 4.65625 -0.65625 "/></g></g></g><g fill="#98198e" fill-opacity="1"><g transform="translate(153.538287, 309.604696)"><g><path d="M 4.6875 0.15625 C 4.101562 0.15625 3.59375 0.078125 3.15625 -0.078125 C 2.726562 -0.234375 2.390625 -0.457031 2.140625 -0.75 C 1.640625 -1.320312 1.390625 -2.082031 1.390625 -3.03125 L 1.390625 -7.984375 L 0.125 -7.984375 L 0.125 -8.8125 L 4.0625 -8.8125 L 4.0625 -7.984375 L 2.765625 -7.984375 L 2.765625 -2.9375 C 2.765625 -1.414062 3.445312 -0.65625 4.8125 -0.65625 C 5.476562 -0.65625 5.984375 -0.847656 6.328125 -1.234375 C 6.679688 -1.628906 6.859375 -2.210938 6.859375 -2.984375 L 6.859375 -7.984375 L 5.53125 -7.984375 L 5.53125 -8.8125 L 9.28125 -8.8125 L 9.28125 -7.984375 L 8.046875 -7.984375 L 8.046875 -3.203125 C 8.046875 -2.785156 8.015625 -2.414062 7.953125 -2.09375 C 7.890625 -1.78125 7.78125 -1.484375 7.625 -1.203125 C 7.46875 -0.898438 7.265625 -0.65625 7.015625 -0.46875 C 6.765625 -0.28125 6.441406 -0.128906 6.046875 -0.015625 C 5.648438 0.0976562 5.195312 0.15625 4.6875 0.15625 Z M 4.6875 0.15625 "/></g></g></g><g fill="#98198e" fill-opacity="1"><g transform="translate(165.882865, 309.604696)"><g><path d="M 0.1875 0 L 0.1875 -0.84375 L 1.609375 -0.84375 L 1.609375 -7.984375 L 0.1875 -7.984375 L 0.1875 -8.8125 L 3.359375 -8.8125 L 7.53125 -1.5625 L 7.53125 -7.984375 L 6.09375 -7.984375 L 6.09375 -8.8125 L 9.984375 -8.8125 L 9.984375 -7.984375 L 8.640625 -7.984375 L 8.640625 0 L 7.078125 0 L 2.71875 -7.578125 L 2.71875 -0.84375 L 4.0625 -0.84375 L 4.0625 0 Z M 0.1875 0 "/></g></g></g><g fill="#98198e" fill-opacity="1"><g transform="translate(178.91299, 309.604696)"><g><path d="M 0.1875 -0.84375 L 1.625 -0.84375 L 1.625 -7.984375 L 0.1875 -7.984375 L 0.1875 -8.8125 L 2.84375 -8.8125 C 3.507812 -8.8125 4.109375 -8.769531 4.640625 -8.6875 C 5.171875 -8.613281 5.6875 -8.476562 6.1875 -8.28125 C 6.71875 -8.0625 7.160156 -7.789062 7.515625 -7.46875 C 7.867188 -7.144531 8.15625 -6.734375 8.375 -6.234375 C 8.59375 -5.710938 8.703125 -5.125 8.703125 -4.46875 C 8.703125 -3.851562 8.613281 -3.296875 8.4375 -2.796875 C 8.257812 -2.296875 8.003906 -1.867188 7.671875 -1.515625 C 7.347656 -1.179688 6.953125 -0.894531 6.484375 -0.65625 C 6.015625 -0.425781 5.492188 -0.257812 4.921875 -0.15625 C 4.359375 -0.0507812 3.738281 0 3.0625 0 L 0.1875 0 Z M 3 -0.84375 C 3.507812 -0.84375 3.960938 -0.878906 4.359375 -0.953125 C 4.753906 -1.023438 5.128906 -1.140625 5.484375 -1.296875 C 5.859375 -1.472656 6.164062 -1.695312 6.40625 -1.96875 C 6.65625 -2.238281 6.847656 -2.582031 6.984375 -3 C 7.128906 -3.414062 7.203125 -3.90625 7.203125 -4.46875 C 7.203125 -4.875 7.160156 -5.242188 7.078125 -5.578125 C 7.003906 -5.921875 6.894531 -6.21875 6.75 -6.46875 C 6.613281 -6.695312 6.441406 -6.898438 6.234375 -7.078125 C 6.035156 -7.265625 5.816406 -7.414062 5.578125 -7.53125 C 5.347656 -7.632812 5.085938 -7.71875 4.796875 -7.78125 C 4.503906 -7.851562 4.210938 -7.90625 3.921875 -7.9375 C 3.640625 -7.957031 3.332031 -7.96875 3 -7.96875 Z M 3 -0.84375 "/></g></g></g><g fill="#98198e" fill-opacity="1"><g transform="translate(191.052492, 309.604696)"><g><path d="M 0.046875 0 L 0.046875 -0.84375 L 1.109375 -0.84375 L 4.1875 -8.8125 L 5.578125 -8.8125 L 8.71875 -0.84375 L 9.703125 -0.84375 L 9.703125 0 L 5.90625 0 L 5.90625 -0.84375 L 7.21875 -0.84375 L 6.40625 -2.953125 L 3.015625 -2.953125 L 2.25 -0.84375 L 3.71875 -0.84375 L 3.71875 0 Z M 3.28125 -3.703125 L 6.109375 -3.703125 L 4.65625 -7.671875 Z M 3.28125 -3.703125 "/></g></g></g><g fill="#98198e" fill-opacity="1"><g transform="translate(203.742777, 309.604696)"><g><path d="M 2.171875 0 L 2.171875 -0.84375 L 3.546875 -0.84375 L 3.546875 -7.984375 L 1.296875 -7.984375 L 1.296875 -5.25 L 0.203125 -5.25 L 0.203125 -8.8125 L 8.203125 -8.8125 L 8.203125 -5.25 L 7.109375 -5.25 L 7.109375 -7.984375 L 4.921875 -7.984375 L 4.921875 -0.84375 L 6.328125 -0.84375 L 6.328125 0 Z M 2.171875 0 "/></g></g></g><g fill="#98198e" fill-opacity="1"><g transform="translate(215.102977, 309.604696)"><g><path d="M 0.171875 0 L 0.171875 -0.84375 L 1.609375 -0.84375 L 1.609375 -7.984375 L 0.171875 -7.984375 L 0.171875 -8.8125 L 4.328125 -8.8125 L 4.328125 -7.984375 L 2.984375 -7.984375 L 2.984375 -0.84375 L 4.328125 -0.84375 L 4.328125 0 Z M 0.171875 0 "/></g></g></g><g fill="#98198e" fill-opacity="1"><g transform="translate(222.560833, 309.604696)"><g><path d="M 4.65625 0.15625 C 4.125 0.15625 3.628906 0.0703125 3.171875 -0.09375 C 2.710938 -0.269531 2.316406 -0.503906 1.984375 -0.796875 C 1.660156 -1.097656 1.382812 -1.441406 1.15625 -1.828125 C 0.925781 -2.222656 0.757812 -2.640625 0.65625 -3.078125 C 0.550781 -3.515625 0.5 -3.960938 0.5 -4.421875 C 0.5 -5.367188 0.71875 -6.226562 1.15625 -7 C 1.382812 -7.40625 1.660156 -7.753906 1.984375 -8.046875 C 2.316406 -8.335938 2.707031 -8.570312 3.15625 -8.75 C 3.625 -8.914062 4.125 -9 4.65625 -9 C 5.1875 -9 5.679688 -8.910156 6.140625 -8.734375 C 6.609375 -8.566406 7.007812 -8.332031 7.34375 -8.03125 C 7.65625 -7.738281 7.925781 -7.394531 8.15625 -7 C 8.382812 -6.613281 8.550781 -6.203125 8.65625 -5.765625 C 8.757812 -5.328125 8.8125 -4.878906 8.8125 -4.421875 C 8.8125 -3.460938 8.59375 -2.597656 8.15625 -1.828125 C 7.925781 -1.421875 7.644531 -1.070312 7.3125 -0.78125 C 6.988281 -0.5 6.609375 -0.273438 6.171875 -0.109375 C 5.703125 0.0664062 5.195312 0.15625 4.65625 0.15625 Z M 4.65625 -0.65625 C 5.070312 -0.65625 5.453125 -0.757812 5.796875 -0.96875 C 6.140625 -1.1875 6.421875 -1.472656 6.640625 -1.828125 C 6.859375 -2.179688 7.023438 -2.578125 7.140625 -3.015625 C 7.253906 -3.460938 7.3125 -3.925781 7.3125 -4.40625 C 7.3125 -4.789062 7.273438 -5.164062 7.203125 -5.53125 C 7.140625 -5.894531 7.03125 -6.234375 6.875 -6.546875 C 6.550781 -7.234375 6.125 -7.707031 5.59375 -7.96875 C 5.3125 -8.113281 5 -8.1875 4.65625 -8.1875 C 4.25 -8.1875 3.875 -8.078125 3.53125 -7.859375 C 3.1875 -7.648438 2.898438 -7.367188 2.671875 -7.015625 C 2.453125 -6.648438 2.285156 -6.242188 2.171875 -5.796875 C 2.054688 -5.359375 2 -4.90625 2 -4.4375 C 2 -3.625 2.144531 -2.90625 2.4375 -2.28125 C 2.59375 -1.945312 2.773438 -1.660156 2.984375 -1.421875 C 3.191406 -1.191406 3.4375 -1.007812 3.71875 -0.875 C 4.007812 -0.726562 4.320312 -0.65625 4.65625 -0.65625 Z M 4.65625 -0.65625 "/></g></g></g><g fill="#98198e" fill-opacity="1"><g transform="translate(234.823383, 309.604696)"><g><path d="M 0.1875 0 L 0.1875 -0.84375 L 1.609375 -0.84375 L 1.609375 -7.984375 L 0.1875 -7.984375 L 0.1875 -8.8125 L 3.359375 -8.8125 L 7.53125 -1.5625 L 7.53125 -7.984375 L 6.09375 -7.984375 L 6.09375 -8.8125 L 9.984375 -8.8125 L 9.984375 -7.984375 L 8.640625 -7.984375 L 8.640625 0 L 7.078125 0 L 2.71875 -7.578125 L 2.71875 -0.84375 L 4.0625 -0.84375 L 4.0625 0 Z M 0.1875 0 "/></g></g></g><g fill="#51ade5" fill-opacity="1"><g transform="translate(125.5628, 289.622355)"><g><path d="M 9.84375 -10.125 C 9.15625 -10.539062 8.46875 -10.847656 7.78125 -11.046875 C 7.101562 -11.253906 6.492188 -11.359375 5.953125 -11.359375 C 5.285156 -11.359375 4.753906 -11.234375 4.359375 -10.984375 C 3.972656 -10.742188 3.78125 -10.394531 3.78125 -9.9375 C 3.78125 -9.53125 3.90625 -9.191406 4.15625 -8.921875 C 4.414062 -8.660156 4.734375 -8.453125 5.109375 -8.296875 C 5.492188 -8.148438 6.023438 -7.96875 6.703125 -7.75 C 7.609375 -7.46875 8.34375 -7.195312 8.90625 -6.9375 C 9.46875 -6.6875 9.945312 -6.300781 10.34375 -5.78125 C 10.738281 -5.269531 10.9375 -4.597656 10.9375 -3.765625 C 10.9375 -2.972656 10.722656 -2.28125 10.296875 -1.6875 C 9.878906 -1.101562 9.289062 -0.648438 8.53125 -0.328125 C 7.769531 -0.015625 6.898438 0.140625 5.921875 0.140625 C 4.898438 0.140625 3.910156 -0.046875 2.953125 -0.421875 C 2.003906 -0.804688 1.1875 -1.332031 0.5 -2 L 1.46875 -3.9375 C 2.132812 -3.3125 2.867188 -2.820312 3.671875 -2.46875 C 4.484375 -2.125 5.25 -1.953125 5.96875 -1.953125 C 6.738281 -1.953125 7.34375 -2.097656 7.78125 -2.390625 C 8.226562 -2.691406 8.453125 -3.101562 8.453125 -3.625 C 8.453125 -4.039062 8.320312 -4.378906 8.0625 -4.640625 C 7.800781 -4.910156 7.472656 -5.125 7.078125 -5.28125 C 6.691406 -5.445312 6.160156 -5.628906 5.484375 -5.828125 C 4.578125 -6.097656 3.847656 -6.359375 3.296875 -6.609375 C 2.742188 -6.859375 2.265625 -7.238281 1.859375 -7.75 C 1.460938 -8.257812 1.265625 -8.925781 1.265625 -9.75 C 1.265625 -10.5 1.46875 -11.15625 1.875 -11.71875 C 2.28125 -12.28125 2.847656 -12.710938 3.578125 -13.015625 C 4.316406 -13.328125 5.164062 -13.484375 6.125 -13.484375 C 6.957031 -13.484375 7.773438 -13.359375 8.578125 -13.109375 C 9.390625 -12.859375 10.117188 -12.523438 10.765625 -12.109375 Z M 9.84375 -10.125 "/></g></g></g><g fill="#51ade5" fill-opacity="1"><g transform="translate(137.378389, 289.622355)"><g><path d="M 1.75 0 L 1.75 -13.296875 L 11.25 -13.296875 L 11.25 -11.28125 L 3.984375 -11.28125 L 3.984375 -7.671875 L 10.484375 -7.671875 L 10.484375 -5.6875 L 3.984375 -5.6875 L 3.984375 -2.015625 L 11.46875 -2.015625 L 11.46875 0 Z M 1.75 0 "/></g></g></g><g fill="#51ade5" fill-opacity="1"><g transform="translate(149.839848, 289.622355)"><g><path d="M 5.359375 0 L 0.0625 -13.296875 L 2.46875 -13.296875 L 6.578125 -2.484375 L 10.71875 -13.296875 L 13.046875 -13.296875 L 7.671875 0 Z M 5.359375 0 "/></g></g></g><g fill="#51ade5" fill-opacity="1"><g transform="translate(162.947166, 289.622355)"><g><path d="M 14 0 L 11.609375 0 L 10.34375 -3 L 3.625 -3 L 2.359375 0 L 0.015625 0 L 5.890625 -13.296875 L 8.1875 -13.296875 Z M 6.96875 -10.90625 L 4.46875 -5 L 9.484375 -5 Z M 6.96875 -10.90625 "/></g></g></g><g fill="#51ade5" fill-opacity="1"><g transform="translate(176.966303, 289.622355)"><g><path d="M 9.84375 -10.125 C 9.15625 -10.539062 8.46875 -10.847656 7.78125 -11.046875 C 7.101562 -11.253906 6.492188 -11.359375 5.953125 -11.359375 C 5.285156 -11.359375 4.753906 -11.234375 4.359375 -10.984375 C 3.972656 -10.742188 3.78125 -10.394531 3.78125 -9.9375 C 3.78125 -9.53125 3.90625 -9.191406 4.15625 -8.921875 C 4.414062 -8.660156 4.734375 -8.453125 5.109375 -8.296875 C 5.492188 -8.148438 6.023438 -7.96875 6.703125 -7.75 C 7.609375 -7.46875 8.34375 -7.195312 8.90625 -6.9375 C 9.46875 -6.6875 9.945312 -6.300781 10.34375 -5.78125 C 10.738281 -5.269531 10.9375 -4.597656 10.9375 -3.765625 C 10.9375 -2.972656 10.722656 -2.28125 10.296875 -1.6875 C 9.878906 -1.101562 9.289062 -0.648438 8.53125 -0.328125 C 7.769531 -0.015625 6.898438 0.140625 5.921875 0.140625 C 4.898438 0.140625 3.910156 -0.046875 2.953125 -0.421875 C 2.003906 -0.804688 1.1875 -1.332031 0.5 -2 L 1.46875 -3.9375 C 2.132812 -3.3125 2.867188 -2.820312 3.671875 -2.46875 C 4.484375 -2.125 5.25 -1.953125 5.96875 -1.953125 C 6.738281 -1.953125 7.34375 -2.097656 7.78125 -2.390625 C 8.226562 -2.691406 8.453125 -3.101562 8.453125 -3.625 C 8.453125 -4.039062 8.320312 -4.378906 8.0625 -4.640625 C 7.800781 -4.910156 7.472656 -5.125 7.078125 -5.28125 C 6.691406 -5.445312 6.160156 -5.628906 5.484375 -5.828125 C 4.578125 -6.097656 3.847656 -6.359375 3.296875 -6.609375 C 2.742188 -6.859375 2.265625 -7.238281 1.859375 -7.75 C 1.460938 -8.257812 1.265625 -8.925781 1.265625 -9.75 C 1.265625 -10.5 1.46875 -11.15625 1.875 -11.71875 C 2.28125 -12.28125 2.847656 -12.710938 3.578125 -13.015625 C 4.316406 -13.328125 5.164062 -13.484375 6.125 -13.484375 C 6.957031 -13.484375 7.773438 -13.359375 8.578125 -13.109375 C 9.390625 -12.859375 10.117188 -12.523438 10.765625 -12.109375 Z M 9.84375 -10.125 "/></g></g></g><g fill="#51ade5" fill-opacity="1"><g transform="translate(188.781892, 289.622355)"><g><path d="M 1.75 0 L 1.75 -13.296875 L 3.984375 -13.296875 L 3.984375 -7.53125 L 11.03125 -7.53125 L 11.03125 -13.296875 L 13.28125 -13.296875 L 13.28125 0 L 11.03125 0 L 11.03125 -5.515625 L 3.984375 -5.515625 L 3.984375 0 Z M 1.75 0 "/></g></g></g><g fill="#51ade5" fill-opacity="1"><g transform="translate(203.807823, 289.622355)"><g><path d="M 12.734375 0 L 10.1875 0 L 7.75 -4.03125 C 7.625 -4.019531 7.421875 -4.015625 7.140625 -4.015625 L 3.984375 -4.015625 L 3.984375 0 L 1.75 0 L 1.75 -13.296875 L 7.140625 -13.296875 C 8.835938 -13.296875 10.15625 -12.898438 11.09375 -12.109375 C 12.03125 -11.316406 12.5 -10.203125 12.5 -8.765625 C 12.5 -7.691406 12.257812 -6.785156 11.78125 -6.046875 C 11.3125 -5.316406 10.632812 -4.785156 9.75 -4.453125 Z M 3.984375 -6.015625 L 7.140625 -6.015625 C 8.179688 -6.015625 8.976562 -6.238281 9.53125 -6.6875 C 10.09375 -7.144531 10.375 -7.816406 10.375 -8.703125 C 10.375 -9.566406 10.09375 -10.210938 9.53125 -10.640625 C 8.976562 -11.066406 8.179688 -11.28125 7.140625 -11.28125 L 3.984375 -11.28125 Z M 3.984375 -6.015625 "/></g></g></g><g fill="#51ade5" fill-opacity="1"><g transform="translate(217.542014, 289.622355)"><g><path d="M 14 0 L 11.609375 0 L 10.34375 -3 L 3.625 -3 L 2.359375 0 L 0.015625 0 L 5.890625 -13.296875 L 8.1875 -13.296875 Z M 6.96875 -10.90625 L 4.46875 -5 L 9.484375 -5 Z M 6.96875 -10.90625 "/></g></g></g><g fill="#51ade5" fill-opacity="1"><g transform="translate(231.561151, 289.622355)"><g><path d="M 1.75 0 L 1.75 -13.296875 L 4.34375 -13.296875 L 8.953125 -4.40625 L 13.515625 -13.296875 L 16.109375 -13.296875 L 16.109375 0 L 14.046875 0 L 14.015625 -9.96875 L 9.65625 -1.390625 L 8.234375 -1.390625 L 3.8125 -9.96875 L 3.8125 0 Z M 1.75 0 "/></g></g></g></svg>